<?xml version="1.0" encoding="UTF-8" standalone="no"?>
<!DOCTYPE svg PUBLIC "-//W3C//DTD SVG 1.1//EN"
 "http://www.w3.org/Graphics/SVG/1.1/DTD/svg11.dtd">
<!-- Generated by graphviz version 2.28.0 (20111028.1807)
 -->
<!-- Title: dependency_graph Pages: 1 -->
<svg width="946pt" height="173pt"
 viewBox="0.00 0.00 945.80 172.80" xmlns="http://www.w3.org/2000/svg" xmlns:xlink="http://www.w3.org/1999/xlink">
<g id="graph1" class="graph" transform="scale(1 1) rotate(0) translate(14.4 158.4)">
<title>dependency_graph</title>
<polygon fill="white" stroke="white" points="-14.4,15.4 -14.4,-158.4 932.4,-158.4 932.4,15.4 -14.4,15.4"/>
<text text-anchor="middle" x="101.936" y="-120" font-family="Helvetica,sans-Serif" font-size="20.00">Deployment Modules</text>
<!-- n0 -->
<g id="node1" class="node"><title>n0</title>
<polyline fill="none" stroke="#666666" points="437.287,-36 290.713,-36 "/>
<path fill="none" stroke="#666666" d="M290.713,-36C284.713,-36 278.713,-30 278.713,-24"/>
<polyline fill="none" stroke="#666666" points="278.713,-24 278.713,-12 "/>
<path fill="none" stroke="#666666" d="M278.713,-12C278.713,-6 284.713,-0 290.713,-0"/>
<polyline fill="none" stroke="#666666" points="290.713,-0 437.287,-0 "/>
<path fill="none" stroke="#666666" d="M437.287,-0C443.287,-0 449.287,-6 449.287,-12"/>
<polyline fill="none" stroke="#666666" points="449.287,-12 449.287,-24 "/>
<path fill="none" stroke="#666666" d="M449.287,-24C449.287,-30 443.287,-36 437.287,-36"/>
<text text-anchor="middle" x="364" y="-13.6" font-family="Helvetica,sans-Serif" font-size="11.00">Deployment/shared_db_paths.pl</text>
</g>
<!-- n1 -->
<g id="node2" class="node"><title>n1</title>
<polyline fill="none" stroke="#666666" points="130.13,-112 11.8698,-112 "/>
<path fill="none" stroke="#666666" d="M11.8698,-112C5.86979,-112 -0.130208,-106 -0.130208,-100"/>
<polyline fill="none" stroke="#666666" points="-0.130208,-100 -0.130208,-88 "/>
<path fill="none" stroke="#666666" d="M-0.130208,-88C-0.130208,-82 5.86979,-76 11.8698,-76"/>
<polyline fill="none" stroke="#666666" points="11.8698,-76 130.13,-76 "/>
<path fill="none" stroke="#666666" d="M130.13,-76C136.13,-76 142.13,-82 142.13,-88"/>
<polyline fill="none" stroke="#666666" points="142.13,-88 142.13,-100 "/>
<path fill="none" stroke="#666666" d="M142.13,-100C142.13,-106 136.13,-112 130.13,-112"/>
<text text-anchor="middle" x="71" y="-89.6" font-family="Helvetica,sans-Serif" font-size="11.00">Deployment/start_admin.pl</text>
</g>
<!-- n1&#45;&gt;n0 -->
<g id="edge2" class="edge"><title>n1&#45;&gt;n0</title>
<path fill="none" stroke="#555555" d="M138.588,-75.93C183.679,-64.5419 242.986,-49.5633 289.448,-37.8287"/>
<polygon fill="#555555" stroke="#555555" points="290.312,-40.1377 296.499,-36.0481 289.112,-35.3869 290.312,-40.1377"/>
</g>
<!-- n2 -->
<g id="node3" class="node"><title>n2</title>
<polyline fill="none" stroke="#666666" points="275.336,-112 174.664,-112 "/>
<path fill="none" stroke="#666666" d="M174.664,-112C168.664,-112 162.664,-106 162.664,-100"/>
<polyline fill="none" stroke="#666666" points="162.664,-100 162.664,-88 "/>
<path fill="none" stroke="#666666" d="M162.664,-88C162.664,-82 168.664,-76 174.664,-76"/>
<polyline fill="none" stroke="#666666" points="174.664,-76 275.336,-76 "/>
<path fill="none" stroke="#666666" d="M275.336,-76C281.336,-76 287.336,-82 287.336,-88"/>
<polyline fill="none" stroke="#666666" points="287.336,-88 287.336,-100 "/>
<path fill="none" stroke="#666666" d="M287.336,-100C287.336,-106 281.336,-112 275.336,-112"/>
<text text-anchor="middle" x="225" y="-89.6" font-family="Helvetica,sans-Serif" font-size="11.00">Deployment/start_n1.pl</text>
</g>
<!-- n2&#45;&gt;n0 -->
<g id="edge4" class="edge"><title>n2&#45;&gt;n0</title>
<path fill="none" stroke="#555555" d="M257.239,-75.8369C277.677,-64.9561 304.219,-50.8258 325.725,-39.3765"/>
<polygon fill="#555555" stroke="#555555" points="326.908,-41.5222 331.936,-36.07 324.606,-37.1969 326.908,-41.5222"/>
</g>
<!-- n3 -->
<g id="node4" class="node"><title>n3</title>
<polyline fill="none" stroke="#666666" points="420.336,-112 319.664,-112 "/>
<path fill="none" stroke="#666666" d="M319.664,-112C313.664,-112 307.664,-106 307.664,-100"/>
<polyline fill="none" stroke="#666666" points="307.664,-100 307.664,-88 "/>
<path fill="none" stroke="#666666" d="M307.664,-88C307.664,-82 313.664,-76 319.664,-76"/>
<polyline fill="none" stroke="#666666" points="319.664,-76 420.336,-76 "/>
<path fill="none" stroke="#666666" d="M420.336,-76C426.336,-76 432.336,-82 432.336,-88"/>
<polyline fill="none" stroke="#666666" points="432.336,-88 432.336,-100 "/>
<path fill="none" stroke="#666666" d="M432.336,-100C432.336,-106 426.336,-112 420.336,-112"/>
<text text-anchor="middle" x="370" y="-89.6" font-family="Helvetica,sans-Serif" font-size="11.00">Deployment/start_n2.pl</text>
</g>
<!-- n3&#45;&gt;n0 -->
<g id="edge6" class="edge"><title>n3&#45;&gt;n0</title>
<path fill="none" stroke="#555555" d="M368.608,-75.8369C367.821,-66.1236 366.823,-53.8206 365.958,-43.1472"/>
<polygon fill="#555555" stroke="#555555" points="368.392,-42.8491 365.384,-36.07 363.508,-43.2451 368.392,-42.8491"/>
</g>
<!-- n4 -->
<g id="node5" class="node"><title>n4</title>
<polyline fill="none" stroke="#666666" points="710.336,-112 609.664,-112 "/>
<path fill="none" stroke="#666666" d="M609.664,-112C603.664,-112 597.664,-106 597.664,-100"/>
<polyline fill="none" stroke="#666666" points="597.664,-100 597.664,-88 "/>
<path fill="none" stroke="#666666" d="M597.664,-88C597.664,-82 603.664,-76 609.664,-76"/>
<polyline fill="none" stroke="#666666" points="609.664,-76 710.336,-76 "/>
<path fill="none" stroke="#666666" d="M710.336,-76C716.336,-76 722.336,-82 722.336,-88"/>
<polyline fill="none" stroke="#666666" points="722.336,-88 722.336,-100 "/>
<path fill="none" stroke="#666666" d="M722.336,-100C722.336,-106 716.336,-112 710.336,-112"/>
<text text-anchor="middle" x="660" y="-89.6" font-family="Helvetica,sans-Serif" font-size="11.00">Deployment/start_n3.pl</text>
</g>
<!-- n4&#45;&gt;n0 -->
<g id="edge8" class="edge"><title>n4&#45;&gt;n0</title>
<path fill="none" stroke="#555555" d="M597.588,-77.3969C551.257,-65.8142 487.877,-49.9692 438.826,-37.7064"/>
<polygon fill="#555555" stroke="#555555" points="439.388,-35.3216 432.003,-36.0007 438.199,-40.0753 439.388,-35.3216"/>
</g>
<!-- n6 -->
<g id="node7" class="node"><title>n6</title>
<polyline fill="none" stroke="#666666" points="511,-36 481,-36 "/>
<path fill="none" stroke="#666666" d="M481,-36C475,-36 469,-30 469,-24"/>
<polyline fill="none" stroke="#666666" points="469,-24 469,-12 "/>
<path fill="none" stroke="#666666" d="M469,-12C469,-6 475,-0 481,-0"/>
<polyline fill="none" stroke="#666666" points="481,-0 511,-0 "/>
<path fill="none" stroke="#666666" d="M511,-0C517,-0 523,-6 523,-12"/>
<polyline fill="none" stroke="#666666" points="523,-12 523,-24 "/>
<path fill="none" stroke="#666666" d="M523,-24C523,-30 517,-36 511,-36"/>
<text text-anchor="middle" x="496" y="-13.6" font-family="Helvetica,sans-Serif" font-size="11.00">actor.pl</text>
</g>
<!-- n4&#45;&gt;n6 -->
<g id="edge10" class="edge"><title>n4&#45;&gt;n6</title>
<path fill="none" stroke="#555555" d="M621.613,-75.8771C596.399,-64.604 562.706,-49.4905 533,-36 531.894,-35.4976 530.769,-34.986 529.634,-34.4688"/>
<polygon fill="#555555" stroke="#555555" points="530.45,-32.1484 523.065,-31.4687 528.415,-36.6055 530.45,-32.1484"/>
</g>
<!-- n7 -->
<g id="node8" class="node"><title>n7</title>
<polyline fill="none" stroke="#666666" points="764.499,-36 555.501,-36 "/>
<path fill="none" stroke="#666666" d="M555.501,-36C549.501,-36 543.501,-30 543.501,-24"/>
<polyline fill="none" stroke="#666666" points="543.501,-24 543.501,-12 "/>
<path fill="none" stroke="#666666" d="M543.501,-12C543.501,-6 549.501,-0 555.501,-0"/>
<polyline fill="none" stroke="#666666" points="555.501,-0 764.499,-0 "/>
<path fill="none" stroke="#666666" d="M764.499,-0C770.499,-0 776.499,-6 776.499,-12"/>
<polyline fill="none" stroke="#666666" points="776.499,-12 776.499,-24 "/>
<path fill="none" stroke="#666666" d="M776.499,-24C776.499,-30 770.499,-36 764.499,-36"/>
<text text-anchor="middle" x="660" y="-13.6" font-family="Helvetica,sans-Serif" font-size="11.00">examples/services/node_resident_services.pl</text>
</g>
<!-- n4&#45;&gt;n7 -->
<g id="edge12" class="edge"><title>n4&#45;&gt;n7</title>
<path fill="none" stroke="#555555" d="M660,-75.8369C660,-66.1236 660,-53.8206 660,-43.1472"/>
<polygon fill="#555555" stroke="#555555" points="662.45,-43.07 660,-36.07 657.55,-43.07 662.45,-43.07"/>
</g>
<!-- n8 -->
<g id="node9" class="node"><title>n8</title>
<polyline fill="none" stroke="#666666" points="905.138,-36 808.862,-36 "/>
<path fill="none" stroke="#666666" d="M808.862,-36C802.862,-36 796.862,-30 796.862,-24"/>
<polyline fill="none" stroke="#666666" points="796.862,-24 796.862,-12 "/>
<path fill="none" stroke="#666666" d="M796.862,-12C796.862,-6 802.862,-0 808.862,-0"/>
<polyline fill="none" stroke="#666666" points="808.862,-0 905.138,-0 "/>
<path fill="none" stroke="#666666" d="M905.138,-0C911.138,-0 917.138,-6 917.138,-12"/>
<polyline fill="none" stroke="#666666" points="917.138,-12 917.138,-24 "/>
<path fill="none" stroke="#666666" d="M917.138,-24C917.138,-30 911.138,-36 905.138,-36"/>
<text text-anchor="middle" x="857" y="-13.6" font-family="Helvetica,sans-Serif" font-size="11.00">node_runtime_state.pl</text>
</g>
<!-- n4&#45;&gt;n8 -->
<g id="edge14" class="edge"><title>n4&#45;&gt;n8</title>
<path fill="none" stroke="#555555" d="M705.691,-75.8369C735.279,-64.7226 773.893,-50.2179 804.707,-38.6432"/>
<polygon fill="#555555" stroke="#555555" points="805.865,-40.8251 811.557,-36.07 804.142,-36.2381 805.865,-40.8251"/>
</g>
<!-- n5 -->
<g id="node6" class="node"><title>n5</title>
<polyline fill="none" stroke="#666666" points="565.336,-112 464.664,-112 "/>
<path fill="none" stroke="#666666" d="M464.664,-112C458.664,-112 452.664,-106 452.664,-100"/>
<polyline fill="none" stroke="#666666" points="452.664,-100 452.664,-88 "/>
<path fill="none" stroke="#666666" d="M452.664,-88C452.664,-82 458.664,-76 464.664,-76"/>
<polyline fill="none" stroke="#666666" points="464.664,-76 565.336,-76 "/>
<path fill="none" stroke="#666666" d="M565.336,-76C571.336,-76 577.336,-82 577.336,-88"/>
<polyline fill="none" stroke="#666666" points="577.336,-88 577.336,-100 "/>
<path fill="none" stroke="#666666" d="M577.336,-100C577.336,-106 571.336,-112 565.336,-112"/>
<text text-anchor="middle" x="515" y="-89.6" font-family="Helvetica,sans-Serif" font-size="11.00">Deployment/start_n4.pl</text>
</g>
<!-- n5&#45;&gt;n0 -->
<g id="edge16" class="edge"><title>n5&#45;&gt;n0</title>
<path fill="none" stroke="#555555" d="M479.978,-75.8369C457.68,-64.9094 428.694,-50.7044 405.279,-39.2292"/>
<polygon fill="#555555" stroke="#555555" points="406.196,-36.9505 398.832,-36.07 404.04,-41.3505 406.196,-36.9505"/>
</g>
<!-- n5&#45;&gt;n6 -->
<g id="edge18" class="edge"><title>n5&#45;&gt;n6</title>
<path fill="none" stroke="#555555" d="M510.593,-75.8369C508.099,-66.1236 504.94,-53.8206 502.2,-43.1472"/>
<polygon fill="#555555" stroke="#555555" points="504.497,-42.2408 500.383,-36.07 499.751,-43.4594 504.497,-42.2408"/>
</g>
<!-- n5&#45;&gt;n7 -->
<g id="edge20" class="edge"><title>n5&#45;&gt;n7</title>
<path fill="none" stroke="#555555" d="M548.63,-75.8369C569.951,-64.9561 597.639,-50.8258 620.073,-39.3765"/>
<polygon fill="#555555" stroke="#555555" points="621.431,-41.4343 626.552,-36.07 619.203,-37.0698 621.431,-41.4343"/>
</g>
<!-- n5&#45;&gt;n8 -->
<g id="edge22" class="edge"><title>n5&#45;&gt;n8</title>
<path fill="none" stroke="#555555" d="M577.412,-78.1289C580.652,-77.3991 583.863,-76.6854 587,-76 675.134,-56.7432 697.896,-55.3955 786,-36 787.191,-35.7377 788.394,-35.4711 789.604,-35.2009"/>
<polygon fill="#555555" stroke="#555555" points="790.322,-37.5506 796.61,-33.6187 789.242,-32.771 790.322,-37.5506"/>
</g>
</g>
</svg>
