<?xml version="1.0" encoding="UTF-8" standalone="no"?>
<!DOCTYPE svg PUBLIC "-//W3C//DTD SVG 1.1//EN"
 "http://www.w3.org/Graphics/SVG/1.1/DTD/svg11.dtd">
<!-- Generated by graphviz version 2.28.0 (20111028.1807)
 -->
<!-- Title: dependency_graph Pages: 1 -->
<svg width="261pt" height="173pt"
 viewBox="0.00 0.00 260.80 172.80" xmlns="http://www.w3.org/2000/svg" xmlns:xlink="http://www.w3.org/1999/xlink">
<g id="graph1" class="graph" transform="scale(1 1) rotate(0) translate(14.4 158.4)">
<title>dependency_graph</title>
<polygon fill="white" stroke="white" points="-14.4,15.4 -14.4,-158.4 247.4,-158.4 247.4,15.4 -14.4,15.4"/>
<text text-anchor="middle" x="51.9062" y="-120" font-family="Helvetica,sans-Serif" font-size="20.00">Examples</text>
<!-- n0 -->
<g id="node1" class="node"><title>n0</title>
<polyline fill="none" stroke="#666666" points="220.499,-112 11.5012,-112 "/>
<path fill="none" stroke="#666666" d="M11.5012,-112C5.50121,-112 -0.498785,-106 -0.498785,-100"/>
<polyline fill="none" stroke="#666666" points="-0.498785,-100 -0.498785,-88 "/>
<path fill="none" stroke="#666666" d="M-0.498785,-88C-0.498785,-82 5.50121,-76 11.5012,-76"/>
<polyline fill="none" stroke="#666666" points="11.5012,-76 220.499,-76 "/>
<path fill="none" stroke="#666666" d="M220.499,-76C226.499,-76 232.499,-82 232.499,-88"/>
<polyline fill="none" stroke="#666666" points="232.499,-88 232.499,-100 "/>
<path fill="none" stroke="#666666" d="M232.499,-100C232.499,-106 226.499,-112 220.499,-112"/>
<text text-anchor="middle" x="116" y="-89.6" font-family="Helvetica,sans-Serif" font-size="11.00">examples/services/node_resident_services.pl</text>
</g>
<!-- n1 -->
<g id="node2" class="node"><title>n1</title>
<polyline fill="none" stroke="#666666" points="94.3919,-36 53.6081,-36 "/>
<path fill="none" stroke="#666666" d="M53.6081,-36C47.6081,-36 41.6081,-30 41.6081,-24"/>
<polyline fill="none" stroke="#666666" points="41.6081,-24 41.6081,-12 "/>
<path fill="none" stroke="#666666" d="M41.6081,-12C41.6081,-6 47.6081,-0 53.6081,-0"/>
<polyline fill="none" stroke="#666666" points="53.6081,-0 94.3919,-0 "/>
<path fill="none" stroke="#666666" d="M94.3919,-0C100.392,-0 106.392,-6 106.392,-12"/>
<polyline fill="none" stroke="#666666" points="106.392,-12 106.392,-24 "/>
<path fill="none" stroke="#666666" d="M106.392,-24C106.392,-30 100.392,-36 94.3919,-36"/>
<text text-anchor="middle" x="74" y="-13.6" font-family="Helvetica,sans-Serif" font-size="11.00">src/actor.pl</text>
</g>
<!-- n0&#45;&gt;n1 -->
<g id="edge2" class="edge"><title>n0&#45;&gt;n1</title>
<path fill="none" stroke="#555555" d="M106.259,-75.8369C100.587,-65.8434 93.359,-53.1087 87.1833,-42.2277"/>
<polygon fill="#555555" stroke="#555555" points="89.2744,-40.9485 83.6884,-36.07 85.0129,-43.3672 89.2744,-40.9485"/>
</g>
<!-- n2 -->
<g id="node3" class="node"><title>n2</title>
<polyline fill="none" stroke="#666666" points="179.357,-36 138.643,-36 "/>
<path fill="none" stroke="#666666" d="M138.643,-36C132.643,-36 126.643,-30 126.643,-24"/>
<polyline fill="none" stroke="#666666" points="126.643,-24 126.643,-12 "/>
<path fill="none" stroke="#666666" d="M126.643,-12C126.643,-6 132.643,-0 138.643,-0"/>
<polyline fill="none" stroke="#666666" points="138.643,-0 179.357,-0 "/>
<path fill="none" stroke="#666666" d="M179.357,-0C185.357,-0 191.357,-6 191.357,-12"/>
<polyline fill="none" stroke="#666666" points="191.357,-12 191.357,-24 "/>
<path fill="none" stroke="#666666" d="M191.357,-24C191.357,-30 185.357,-36 179.357,-36"/>
<text text-anchor="middle" x="159" y="-13.6" font-family="Helvetica,sans-Serif" font-size="11.00">src/node.pl</text>
</g>
<!-- n0&#45;&gt;n2 -->
<g id="edge4" class="edge"><title>n0&#45;&gt;n2</title>
<path fill="none" stroke="#555555" d="M125.973,-75.8369C131.78,-65.8434 139.18,-53.1087 145.503,-42.2277"/>
<polygon fill="#555555" stroke="#555555" points="147.682,-43.3533 149.081,-36.07 143.446,-40.8915 147.682,-43.3533"/>
</g>
</g>
</svg>
