<?xml version="1.0" encoding="UTF-8" standalone="no"?>
<!DOCTYPE svg PUBLIC "-//W3C//DTD SVG 1.1//EN"
 "http://www.w3.org/Graphics/SVG/1.1/DTD/svg11.dtd">
<!-- Generated by graphviz version 2.28.0 (20111028.1807)
 -->
<!-- Title: dependency_graph Pages: 1 -->
<svg width="261pt" height="173pt"
 viewBox="0.00 0.00 260.80 172.80" xmlns="http://www.w3.org/2000/svg" xmlns:xlink="http://www.w3.org/1999/xlink">
<g id="graph1" class="graph" transform="scale(1 1) rotate(0) translate(14.4 158.4)">
<title>dependency_graph</title>
<polygon fill="white" stroke="white" points="-14.4,15.4 -14.4,-158.4 247.4,-158.4 247.4,15.4 -14.4,15.4"/>
<text text-anchor="middle" x="51.9062" y="-120" font-family="Helvetica,sans-Serif" font-size="20.00">Examples</text>
<!-- n0 -->
<g id="node1" class="node"><title>n0</title>
<polyline fill="none" stroke="#666666" points="94,-36 64,-36 "/>
<path fill="none" stroke="#666666" d="M64,-36C58,-36 52,-30 52,-24"/>
<polyline fill="none" stroke="#666666" points="52,-24 52,-12 "/>
<path fill="none" stroke="#666666" d="M52,-12C52,-6 58,-0 64,-0"/>
<polyline fill="none" stroke="#666666" points="64,-0 94,-0 "/>
<path fill="none" stroke="#666666" d="M94,-0C100,-0 106,-6 106,-12"/>
<polyline fill="none" stroke="#666666" points="106,-12 106,-24 "/>
<path fill="none" stroke="#666666" d="M106,-24C106,-30 100,-36 94,-36"/>
<text text-anchor="middle" x="79" y="-13.6" font-family="Helvetica,sans-Serif" font-size="11.00">actor.pl</text>
</g>
<!-- n1 -->
<g id="node2" class="node"><title>n1</title>
<polyline fill="none" stroke="#666666" points="220.499,-112 11.5012,-112 "/>
<path fill="none" stroke="#666666" d="M11.5012,-112C5.50121,-112 -0.498785,-106 -0.498785,-100"/>
<polyline fill="none" stroke="#666666" points="-0.498785,-100 -0.498785,-88 "/>
<path fill="none" stroke="#666666" d="M-0.498785,-88C-0.498785,-82 5.50121,-76 11.5012,-76"/>
<polyline fill="none" stroke="#666666" points="11.5012,-76 220.499,-76 "/>
<path fill="none" stroke="#666666" d="M220.499,-76C226.499,-76 232.499,-82 232.499,-88"/>
<polyline fill="none" stroke="#666666" points="232.499,-88 232.499,-100 "/>
<path fill="none" stroke="#666666" d="M232.499,-100C232.499,-106 226.499,-112 220.499,-112"/>
<text text-anchor="middle" x="116" y="-89.6" font-family="Helvetica,sans-Serif" font-size="11.00">examples/services/node_resident_services.pl</text>
</g>
<!-- n1&#45;&gt;n0 -->
<g id="edge2" class="edge"><title>n1&#45;&gt;n0</title>
<path fill="none" stroke="#555555" d="M107.418,-75.8369C102.468,-65.9368 96.1732,-53.3465 90.7666,-42.5332"/>
<polygon fill="#555555" stroke="#555555" points="92.8569,-41.2353 87.535,-36.07 88.4742,-43.4267 92.8569,-41.2353"/>
</g>
<!-- n2 -->
<g id="node3" class="node"><title>n2</title>
<polyline fill="none" stroke="#666666" points="168,-36 138,-36 "/>
<path fill="none" stroke="#666666" d="M138,-36C132,-36 126,-30 126,-24"/>
<polyline fill="none" stroke="#666666" points="126,-24 126,-12 "/>
<path fill="none" stroke="#666666" d="M126,-12C126,-6 132,-0 138,-0"/>
<polyline fill="none" stroke="#666666" points="138,-0 168,-0 "/>
<path fill="none" stroke="#666666" d="M168,-0C174,-0 180,-6 180,-12"/>
<polyline fill="none" stroke="#666666" points="180,-12 180,-24 "/>
<path fill="none" stroke="#666666" d="M180,-24C180,-30 174,-36 168,-36"/>
<text text-anchor="middle" x="153" y="-13.6" font-family="Helvetica,sans-Serif" font-size="11.00">node.pl</text>
</g>
<!-- n1&#45;&gt;n2 -->
<g id="edge4" class="edge"><title>n1&#45;&gt;n2</title>
<path fill="none" stroke="#555555" d="M124.582,-75.8369C129.532,-65.9368 135.827,-53.3465 141.233,-42.5332"/>
<polygon fill="#555555" stroke="#555555" points="143.526,-43.4267 144.465,-36.07 139.143,-41.2353 143.526,-43.4267"/>
</g>
</g>
</svg>
