<?xml version="1.0" encoding="UTF-8" standalone="no"?>
<!DOCTYPE svg PUBLIC "-//W3C//DTD SVG 1.1//EN"
 "http://www.w3.org/Graphics/SVG/1.1/DTD/svg11.dtd">
<!-- Generated by graphviz version 2.28.0 (20111028.1807)
 -->
<!-- Title: dependency_graph Pages: 1 -->
<svg width="460pt" height="173pt"
 viewBox="0.00 0.00 459.80 172.80" xmlns="http://www.w3.org/2000/svg" xmlns:xlink="http://www.w3.org/1999/xlink">
<g id="graph1" class="graph" transform="scale(1 1) rotate(0) translate(14.4 158.4)">
<title>dependency_graph</title>
<polygon fill="white" stroke="white" points="-14.4,15.4 -14.4,-158.4 446.4,-158.4 446.4,15.4 -14.4,15.4"/>
<text text-anchor="middle" x="68.5811" y="-120" font-family="Helvetica,sans-Serif" font-size="20.00">PoC Libraries</text>
<!-- n0 -->
<g id="node1" class="node"><title>n0</title>
<polyline fill="none" stroke="#666666" points="103.905,-36 12.0954,-36 "/>
<path fill="none" stroke="#666666" d="M12.0954,-36C6.09536,-36 0.0953568,-30 0.0953568,-24"/>
<polyline fill="none" stroke="#666666" points="0.0953568,-24 0.0953568,-12 "/>
<path fill="none" stroke="#666666" d="M0.0953568,-12C0.0953568,-6 6.09536,-0 12.0954,-0"/>
<polyline fill="none" stroke="#666666" points="12.0954,-0 103.905,-0 "/>
<path fill="none" stroke="#666666" d="M103.905,-0C109.905,-0 115.905,-6 115.905,-12"/>
<polyline fill="none" stroke="#666666" points="115.905,-12 115.905,-24 "/>
<path fill="none" stroke="#666666" d="M115.905,-24C115.905,-30 109.905,-36 103.905,-36"/>
<text text-anchor="middle" x="58" y="-13.6" font-family="Helvetica,sans-Serif" font-size="11.00">poc&#45;libraries/actors.pl</text>
</g>
<!-- n1 -->
<g id="node2" class="node"><title>n1</title>
<polyline fill="none" stroke="#666666" points="276.962,-36 149.038,-36 "/>
<path fill="none" stroke="#666666" d="M149.038,-36C143.038,-36 137.038,-30 137.038,-24"/>
<polyline fill="none" stroke="#666666" points="137.038,-24 137.038,-12 "/>
<path fill="none" stroke="#666666" d="M137.038,-12C137.038,-6 143.038,-0 149.038,-0"/>
<polyline fill="none" stroke="#666666" points="149.038,-0 276.962,-0 "/>
<path fill="none" stroke="#666666" d="M276.962,-0C282.962,-0 288.962,-6 288.962,-12"/>
<polyline fill="none" stroke="#666666" points="288.962,-12 288.962,-24 "/>
<path fill="none" stroke="#666666" d="M288.962,-24C288.962,-30 282.962,-36 276.962,-36"/>
<text text-anchor="middle" x="213" y="-13.6" font-family="Helvetica,sans-Serif" font-size="11.00">poc&#45;libraries/actors_trealla.pl</text>
</g>
<!-- n2 -->
<g id="node3" class="node"><title>n2</title>
<polyline fill="none" stroke="#666666" points="419.036,-36 320.964,-36 "/>
<path fill="none" stroke="#666666" d="M320.964,-36C314.964,-36 308.964,-30 308.964,-24"/>
<polyline fill="none" stroke="#666666" points="308.964,-24 308.964,-12 "/>
<path fill="none" stroke="#666666" d="M308.964,-12C308.964,-6 314.964,-0 320.964,-0"/>
<polyline fill="none" stroke="#666666" points="320.964,-0 419.036,-0 "/>
<path fill="none" stroke="#666666" d="M419.036,-0C425.036,-0 431.036,-6 431.036,-12"/>
<polyline fill="none" stroke="#666666" points="431.036,-12 431.036,-24 "/>
<path fill="none" stroke="#666666" d="M431.036,-24C431.036,-30 425.036,-36 419.036,-36"/>
<text text-anchor="middle" x="370" y="-13.6" font-family="Helvetica,sans-Serif" font-size="11.00">poc&#45;libraries/parallel.pl</text>
</g>
<!-- n3 -->
<g id="node4" class="node"><title>n3</title>
<polyline fill="none" stroke="#666666" points="100.361,-112 15.6393,-112 "/>
<path fill="none" stroke="#666666" d="M15.6393,-112C9.63933,-112 3.63933,-106 3.63933,-100"/>
<polyline fill="none" stroke="#666666" points="3.63933,-100 3.63933,-88 "/>
<path fill="none" stroke="#666666" d="M3.63933,-88C3.63933,-82 9.63933,-76 15.6393,-76"/>
<polyline fill="none" stroke="#666666" points="15.6393,-76 100.361,-76 "/>
<path fill="none" stroke="#666666" d="M100.361,-76C106.361,-76 112.361,-82 112.361,-88"/>
<polyline fill="none" stroke="#666666" points="112.361,-88 112.361,-100 "/>
<path fill="none" stroke="#666666" d="M112.361,-100C112.361,-106 106.361,-112 100.361,-112"/>
<text text-anchor="middle" x="58" y="-89.6" font-family="Helvetica,sans-Serif" font-size="11.00">poc&#45;libraries/tests.pl</text>
</g>
<!-- n3&#45;&gt;n0 -->
<g id="edge2" class="edge"><title>n3&#45;&gt;n0</title>
<path fill="none" stroke="#555555" d="M58,-75.8369C58,-66.1236 58,-53.8206 58,-43.1472"/>
<polygon fill="#555555" stroke="#555555" points="60.4501,-43.07 58,-36.07 55.5501,-43.07 60.4501,-43.07"/>
</g>
<!-- n4 -->
<g id="node5" class="node"><title>n4</title>
<polyline fill="none" stroke="#666666" points="351.418,-112 230.582,-112 "/>
<path fill="none" stroke="#666666" d="M230.582,-112C224.582,-112 218.582,-106 218.582,-100"/>
<polyline fill="none" stroke="#666666" points="218.582,-100 218.582,-88 "/>
<path fill="none" stroke="#666666" d="M218.582,-88C218.582,-82 224.582,-76 230.582,-76"/>
<polyline fill="none" stroke="#666666" points="230.582,-76 351.418,-76 "/>
<path fill="none" stroke="#666666" d="M351.418,-76C357.418,-76 363.418,-82 363.418,-88"/>
<polyline fill="none" stroke="#666666" points="363.418,-88 363.418,-100 "/>
<path fill="none" stroke="#666666" d="M363.418,-100C363.418,-106 357.418,-112 351.418,-112"/>
<text text-anchor="middle" x="291" y="-89.6" font-family="Helvetica,sans-Serif" font-size="11.00">poc&#45;libraries/tests_trealla.pl</text>
</g>
<!-- n4&#45;&gt;n1 -->
<g id="edge4" class="edge"><title>n4&#45;&gt;n1</title>
<path fill="none" stroke="#555555" d="M272.909,-75.8369C261.982,-65.4698 247.945,-52.1527 236.205,-41.0154"/>
<polygon fill="#555555" stroke="#555555" points="237.757,-39.1105 230.993,-36.07 234.385,-42.6653 237.757,-39.1105"/>
</g>
<!-- n4&#45;&gt;n2 -->
<g id="edge6" class="edge"><title>n4&#45;&gt;n2</title>
<path fill="none" stroke="#555555" d="M309.323,-75.8369C320.39,-65.4698 334.607,-52.1527 346.497,-41.0154"/>
<polygon fill="#555555" stroke="#555555" points="348.343,-42.6436 351.777,-36.07 344.993,-39.0674 348.343,-42.6436"/>
</g>
</g>
</svg>
