<?xml version="1.0" encoding="UTF-8" standalone="no"?>
<!DOCTYPE svg PUBLIC "-//W3C//DTD SVG 1.1//EN"
 "http://www.w3.org/Graphics/SVG/1.1/DTD/svg11.dtd">
<!-- Generated by graphviz version 2.28.0 (20111028.1807)
 -->
<!-- Title: dependency_graph Pages: 1 -->
<svg width="897pt" height="325pt"
 viewBox="0.00 0.00 896.80 324.80" xmlns="http://www.w3.org/2000/svg" xmlns:xlink="http://www.w3.org/1999/xlink">
<g id="graph1" class="graph" transform="scale(1 1) rotate(0) translate(14.4 310.4)">
<title>dependency_graph</title>
<polygon fill="white" stroke="white" points="-14.4,15.4 -14.4,-310.4 883.4,-310.4 883.4,15.4 -14.4,15.4"/>
<text text-anchor="middle" x="94.1572" y="-272" font-family="Helvetica,sans-Serif" font-size="20.00">Statechart Modules</text>
<!-- n0 -->
<g id="node1" class="node"><title>n0</title>
<polyline fill="none" stroke="#666666" points="186.343,-188 11.6575,-188 "/>
<path fill="none" stroke="#666666" d="M11.6575,-188C5.65748,-188 -0.342515,-182 -0.342515,-176"/>
<polyline fill="none" stroke="#666666" points="-0.342515,-176 -0.342515,-164 "/>
<path fill="none" stroke="#666666" d="M-0.342515,-164C-0.342515,-158 5.65748,-152 11.6575,-152"/>
<polyline fill="none" stroke="#666666" points="11.6575,-152 186.343,-152 "/>
<path fill="none" stroke="#666666" d="M186.343,-152C192.343,-152 198.343,-158 198.343,-164"/>
<polyline fill="none" stroke="#666666" points="198.343,-164 198.343,-176 "/>
<path fill="none" stroke="#666666" d="M198.343,-176C198.343,-182 192.343,-188 186.343,-188"/>
<text text-anchor="middle" x="99" y="-165.6" font-family="Helvetica,sans-Serif" font-size="11.00">prolog/web_prolog/actor_io_support.pl</text>
</g>
<!-- n1 -->
<g id="node2" class="node"><title>n1</title>
<polyline fill="none" stroke="#666666" points="472.352,-36 349.648,-36 "/>
<path fill="none" stroke="#666666" d="M349.648,-36C343.648,-36 337.648,-30 337.648,-24"/>
<polyline fill="none" stroke="#666666" points="337.648,-24 337.648,-12 "/>
<path fill="none" stroke="#666666" d="M337.648,-12C337.648,-6 343.648,-0 349.648,-0"/>
<polyline fill="none" stroke="#666666" points="349.648,-0 472.352,-0 "/>
<path fill="none" stroke="#666666" d="M472.352,-0C478.352,-0 484.352,-6 484.352,-12"/>
<polyline fill="none" stroke="#666666" points="484.352,-12 484.352,-24 "/>
<path fill="none" stroke="#666666" d="M484.352,-24C484.352,-30 478.352,-36 472.352,-36"/>
<text text-anchor="middle" x="411" y="-13.6" font-family="Helvetica,sans-Serif" font-size="11.00">prolog/web_prolog/actors.pl</text>
</g>
<!-- n2 -->
<g id="node3" class="node"><title>n2</title>
<polyline fill="none" stroke="#666666" points="856.157,-188 723.843,-188 "/>
<path fill="none" stroke="#666666" d="M723.843,-188C717.843,-188 711.843,-182 711.843,-176"/>
<polyline fill="none" stroke="#666666" points="711.843,-176 711.843,-164 "/>
<path fill="none" stroke="#666666" d="M711.843,-164C711.843,-158 717.843,-152 723.843,-152"/>
<polyline fill="none" stroke="#666666" points="723.843,-152 856.157,-152 "/>
<path fill="none" stroke="#666666" d="M856.157,-152C862.157,-152 868.157,-158 868.157,-164"/>
<polyline fill="none" stroke="#666666" points="868.157,-164 868.157,-176 "/>
<path fill="none" stroke="#666666" d="M868.157,-176C868.157,-182 862.157,-188 856.157,-188"/>
<text text-anchor="middle" x="790" y="-165.6" font-family="Helvetica,sans-Serif" font-size="11.00">prolog/web_prolog/isolation.pl</text>
</g>
<!-- n3 -->
<g id="node4" class="node"><title>n3</title>
<polyline fill="none" stroke="#666666" points="304.408,-36 153.592,-36 "/>
<path fill="none" stroke="#666666" d="M153.592,-36C147.592,-36 141.592,-30 141.592,-24"/>
<polyline fill="none" stroke="#666666" points="141.592,-24 141.592,-12 "/>
<path fill="none" stroke="#666666" d="M141.592,-12C141.592,-6 147.592,-0 153.592,-0"/>
<polyline fill="none" stroke="#666666" points="153.592,-0 304.408,-0 "/>
<path fill="none" stroke="#666666" d="M304.408,-0C310.408,-0 316.408,-6 316.408,-12"/>
<polyline fill="none" stroke="#666666" points="316.408,-12 316.408,-24 "/>
<path fill="none" stroke="#666666" d="M316.408,-24C316.408,-30 310.408,-36 304.408,-36"/>
<text text-anchor="middle" x="229" y="-13.6" font-family="Helvetica,sans-Serif" font-size="11.00">prolog/web_prolog/source_utils.pl</text>
</g>
<!-- n4 -->
<g id="node5" class="node"><title>n4</title>
<polyline fill="none" stroke="#666666" points="571.591,-264 400.409,-264 "/>
<path fill="none" stroke="#666666" d="M400.409,-264C394.409,-264 388.409,-258 388.409,-252"/>
<polyline fill="none" stroke="#666666" points="388.409,-252 388.409,-240 "/>
<path fill="none" stroke="#666666" d="M388.409,-240C388.409,-234 394.409,-228 400.409,-228"/>
<polyline fill="none" stroke="#666666" points="400.409,-228 571.591,-228 "/>
<path fill="none" stroke="#666666" d="M571.591,-228C577.591,-228 583.591,-234 583.591,-240"/>
<polyline fill="none" stroke="#666666" points="583.591,-240 583.591,-252 "/>
<path fill="none" stroke="#666666" d="M583.591,-252C583.591,-258 577.591,-264 571.591,-264"/>
<text text-anchor="middle" x="486" y="-241.6" font-family="Helvetica,sans-Serif" font-size="11.00">prolog/web_prolog/statechart_actor.pl</text>
</g>
<!-- n4&#45;&gt;n0 -->
<g id="edge2" class="edge"><title>n4&#45;&gt;n0</title>
<path fill="none" stroke="#555555" d="M396.728,-227.93C336.438,-216.402 256.905,-201.194 195.209,-189.397"/>
<polygon fill="#555555" stroke="#555555" points="195.493,-186.956 188.157,-188.048 194.572,-191.769 195.493,-186.956"/>
</g>
<!-- n4&#45;&gt;n1 -->
<g id="edge4" class="edge"><title>n4&#45;&gt;n1</title>
<path fill="none" stroke="#555555" d="M484.591,-227.713C482.464,-208.387 477.279,-176.58 465,-152 454.573,-131.127 441.32,-132.926 431,-112 420.248,-90.1978 415.248,-62.7212 412.941,-43.3034"/>
<polygon fill="#555555" stroke="#555555" points="415.37,-42.9805 412.182,-36.2845 410.499,-43.5074 415.37,-42.9805"/>
</g>
<!-- n4&#45;&gt;n2 -->
<g id="edge6" class="edge"><title>n4&#45;&gt;n2</title>
<path fill="none" stroke="#555555" d="M556.125,-227.93C603.005,-216.518 664.695,-201.502 712.946,-189.756"/>
<polygon fill="#555555" stroke="#555555" points="713.743,-192.084 719.964,-188.048 712.584,-187.323 713.743,-192.084"/>
</g>
<!-- n5 -->
<g id="node6" class="node"><title>n5</title>
<polyline fill="none" stroke="#666666" points="443.128,-188 272.872,-188 "/>
<path fill="none" stroke="#666666" d="M272.872,-188C266.872,-188 260.872,-182 260.872,-176"/>
<polyline fill="none" stroke="#666666" points="260.872,-176 260.872,-164 "/>
<path fill="none" stroke="#666666" d="M260.872,-164C260.872,-158 266.872,-152 272.872,-152"/>
<polyline fill="none" stroke="#666666" points="272.872,-152 443.128,-152 "/>
<path fill="none" stroke="#666666" d="M443.128,-152C449.128,-152 455.128,-158 455.128,-164"/>
<polyline fill="none" stroke="#666666" points="455.128,-164 455.128,-176 "/>
<path fill="none" stroke="#666666" d="M455.128,-176C455.128,-182 449.128,-188 443.128,-188"/>
<text text-anchor="middle" x="358" y="-165.6" font-family="Helvetica,sans-Serif" font-size="11.00">prolog/web_prolog/statechart_exec.pl</text>
</g>
<!-- n4&#45;&gt;n5 -->
<g id="edge8" class="edge"><title>n4&#45;&gt;n5</title>
<path fill="none" stroke="#555555" d="M456.312,-227.837C437.653,-217.05 413.469,-203.068 393.757,-191.672"/>
<polygon fill="#555555" stroke="#555555" points="394.813,-189.453 387.527,-188.07 392.36,-193.695 394.813,-189.453"/>
</g>
<!-- n6 -->
<g id="node7" class="node"><title>n6</title>
<polyline fill="none" stroke="#666666" points="318.173,-112 141.827,-112 "/>
<path fill="none" stroke="#666666" d="M141.827,-112C135.827,-112 129.827,-106 129.827,-100"/>
<polyline fill="none" stroke="#666666" points="129.827,-100 129.827,-88 "/>
<path fill="none" stroke="#666666" d="M129.827,-88C129.827,-82 135.827,-76 141.827,-76"/>
<polyline fill="none" stroke="#666666" points="141.827,-76 318.173,-76 "/>
<path fill="none" stroke="#666666" d="M318.173,-76C324.173,-76 330.173,-82 330.173,-88"/>
<polyline fill="none" stroke="#666666" points="330.173,-88 330.173,-100 "/>
<path fill="none" stroke="#666666" d="M330.173,-100C330.173,-106 324.173,-112 318.173,-112"/>
<text text-anchor="middle" x="230" y="-89.6" font-family="Helvetica,sans-Serif" font-size="11.00">prolog/web_prolog/statechart_model.pl</text>
</g>
<!-- n4&#45;&gt;n6 -->
<g id="edge10" class="edge"><title>n4&#45;&gt;n6</title>
<path fill="none" stroke="#555555" d="M388.63,-231.895C333.013,-222.45 270.547,-207.86 251,-188 233.239,-169.955 229.206,-140.271 228.836,-119.299"/>
<polygon fill="#555555" stroke="#555555" points="231.286,-119.28 228.841,-112.278 226.386,-119.276 231.286,-119.28"/>
</g>
<!-- n7 -->
<g id="node8" class="node"><title>n7</title>
<polyline fill="none" stroke="#666666" points="637.211,-112 452.789,-112 "/>
<path fill="none" stroke="#666666" d="M452.789,-112C446.789,-112 440.789,-106 440.789,-100"/>
<polyline fill="none" stroke="#666666" points="440.789,-100 440.789,-88 "/>
<path fill="none" stroke="#666666" d="M440.789,-88C440.789,-82 446.789,-76 452.789,-76"/>
<polyline fill="none" stroke="#666666" points="452.789,-76 637.211,-76 "/>
<path fill="none" stroke="#666666" d="M637.211,-76C643.211,-76 649.211,-82 649.211,-88"/>
<polyline fill="none" stroke="#666666" points="649.211,-88 649.211,-100 "/>
<path fill="none" stroke="#666666" d="M649.211,-100C649.211,-106 643.211,-112 637.211,-112"/>
<text text-anchor="middle" x="545" y="-89.6" font-family="Helvetica,sans-Serif" font-size="11.00">prolog/web_prolog/statechart_runtime.pl</text>
</g>
<!-- n4&#45;&gt;n7 -->
<g id="edge12" class="edge"><title>n4&#45;&gt;n7</title>
<path fill="none" stroke="#555555" d="M492.768,-227.793C503.304,-201.006 523.657,-149.262 535.608,-118.878"/>
<polygon fill="#555555" stroke="#555555" points="538.029,-119.417 538.311,-112.006 533.469,-117.624 538.029,-119.417"/>
</g>
<!-- n8 -->
<g id="node9" class="node"><title>n8</title>
<polyline fill="none" stroke="#666666" points="723.377,-36 556.623,-36 "/>
<path fill="none" stroke="#666666" d="M556.623,-36C550.623,-36 544.623,-30 544.623,-24"/>
<polyline fill="none" stroke="#666666" points="544.623,-24 544.623,-12 "/>
<path fill="none" stroke="#666666" d="M544.623,-12C544.623,-6 550.623,-0 556.623,-0"/>
<polyline fill="none" stroke="#666666" points="556.623,-0 723.377,-0 "/>
<path fill="none" stroke="#666666" d="M723.377,-0C729.377,-0 735.377,-6 735.377,-12"/>
<polyline fill="none" stroke="#666666" points="735.377,-12 735.377,-24 "/>
<path fill="none" stroke="#666666" d="M735.377,-24C735.377,-30 729.377,-36 723.377,-36"/>
<text text-anchor="middle" x="640" y="-13.6" font-family="Helvetica,sans-Serif" font-size="11.00">prolog/web_prolog/toplevel_actors.pl</text>
</g>
<!-- n4&#45;&gt;n8 -->
<g id="edge14" class="edge"><title>n4&#45;&gt;n8</title>
<path fill="none" stroke="#555555" d="M525.188,-227.975C567.108,-207.354 631.295,-168.246 659,-112 669.813,-90.0481 661.689,-62.2721 652.959,-42.8144"/>
<polygon fill="#555555" stroke="#555555" points="655.086,-41.5805 649.876,-36.3021 650.657,-43.6773 655.086,-41.5805"/>
</g>
<!-- n5&#45;&gt;n1 -->
<g id="edge16" class="edge"><title>n5&#45;&gt;n1</title>
<path fill="none" stroke="#555555" d="M364.08,-151.793C373.545,-125.006 391.827,-73.2623 402.563,-42.8781"/>
<polygon fill="#555555" stroke="#555555" points="404.969,-43.4226 404.991,-36.0062 400.349,-41.7901 404.969,-43.4226"/>
</g>
<!-- n5&#45;&gt;n6 -->
<g id="edge18" class="edge"><title>n5&#45;&gt;n6</title>
<path fill="none" stroke="#555555" d="M328.312,-151.837C309.653,-141.05 285.469,-127.068 265.757,-115.672"/>
<polygon fill="#555555" stroke="#555555" points="266.813,-113.453 259.527,-112.07 264.36,-117.695 266.813,-113.453"/>
</g>
<!-- n5&#45;&gt;n7 -->
<g id="edge20" class="edge"><title>n5&#45;&gt;n7</title>
<path fill="none" stroke="#555555" d="M401.372,-151.837C429.34,-140.769 465.804,-126.34 494.992,-114.789"/>
<polygon fill="#555555" stroke="#555555" points="496.256,-116.924 501.864,-112.07 494.453,-112.368 496.256,-116.924"/>
</g>
<!-- n6&#45;&gt;n3 -->
<g id="edge22" class="edge"><title>n6&#45;&gt;n3</title>
<path fill="none" stroke="#555555" d="M229.768,-75.8369C229.637,-66.1236 229.471,-53.8206 229.326,-43.1472"/>
<polygon fill="#555555" stroke="#555555" points="231.775,-43.0362 229.231,-36.07 226.876,-43.1025 231.775,-43.0362"/>
</g>
<!-- n7&#45;&gt;n1 -->
<g id="edge24" class="edge"><title>n7&#45;&gt;n1</title>
<path fill="none" stroke="#555555" d="M513.921,-75.8369C494.302,-65.0028 468.85,-50.947 448.165,-39.5241"/>
<polygon fill="#555555" stroke="#555555" points="449.223,-37.3093 441.911,-36.07 446.854,-41.5987 449.223,-37.3093"/>
</g>
<!-- n7&#45;&gt;n8 -->
<g id="edge26" class="edge"><title>n7&#45;&gt;n8</title>
<path fill="none" stroke="#555555" d="M567.034,-75.8369C580.583,-65.283 598.056,-51.6719 612.507,-40.4155"/>
<polygon fill="#555555" stroke="#555555" points="614.069,-42.3045 618.086,-36.07 611.058,-38.4388 614.069,-42.3045"/>
</g>
</g>
</svg>
