<?xml version="1.0" encoding="UTF-8" standalone="no"?>
<!DOCTYPE svg PUBLIC "-//W3C//DTD SVG 1.1//EN"
 "http://www.w3.org/Graphics/SVG/1.1/DTD/svg11.dtd">
<!-- Generated by graphviz version 2.28.0 (20111028.1807)
 -->
<!-- Title: dependency_graph Pages: 1 -->
<svg width="781pt" height="325pt"
 viewBox="0.00 0.00 781.06 324.80" xmlns="http://www.w3.org/2000/svg" xmlns:xlink="http://www.w3.org/1999/xlink">
<g id="graph1" class="graph" transform="scale(1 1) rotate(0) translate(14.4 310.4)">
<title>dependency_graph</title>
<polygon fill="white" stroke="white" points="-14.4,15.4 -14.4,-310.4 767.664,-310.4 767.664,15.4 -14.4,15.4"/>
<text text-anchor="middle" x="94.1572" y="-272" font-family="Helvetica,sans-Serif" font-size="20.00">Statechart Modules</text>
<!-- n0 -->
<g id="node1" class="node"><title>n0</title>
<polyline fill="none" stroke="#666666" points="266.392,-36 225.608,-36 "/>
<path fill="none" stroke="#666666" d="M225.608,-36C219.608,-36 213.608,-30 213.608,-24"/>
<polyline fill="none" stroke="#666666" points="213.608,-24 213.608,-12 "/>
<path fill="none" stroke="#666666" d="M213.608,-12C213.608,-6 219.608,-0 225.608,-0"/>
<polyline fill="none" stroke="#666666" points="225.608,-0 266.392,-0 "/>
<path fill="none" stroke="#666666" d="M266.392,-0C272.392,-0 278.392,-6 278.392,-12"/>
<polyline fill="none" stroke="#666666" points="278.392,-12 278.392,-24 "/>
<path fill="none" stroke="#666666" d="M278.392,-24C278.392,-30 272.392,-36 266.392,-36"/>
<text text-anchor="middle" x="246" y="-13.6" font-family="Helvetica,sans-Serif" font-size="11.00">src/actor.pl</text>
</g>
<!-- n1 -->
<g id="node2" class="node"><title>n1</title>
<polyline fill="none" stroke="#666666" points="436.458,-188 337.542,-188 "/>
<path fill="none" stroke="#666666" d="M337.542,-188C331.542,-188 325.542,-182 325.542,-176"/>
<polyline fill="none" stroke="#666666" points="325.542,-176 325.542,-164 "/>
<path fill="none" stroke="#666666" d="M325.542,-164C325.542,-158 331.542,-152 337.542,-152"/>
<polyline fill="none" stroke="#666666" points="337.542,-152 436.458,-152 "/>
<path fill="none" stroke="#666666" d="M436.458,-152C442.458,-152 448.458,-158 448.458,-164"/>
<polyline fill="none" stroke="#666666" points="448.458,-164 448.458,-176 "/>
<path fill="none" stroke="#666666" d="M448.458,-176C448.458,-182 442.458,-188 436.458,-188"/>
<text text-anchor="middle" x="387" y="-165.6" font-family="Helvetica,sans-Serif" font-size="11.00">src/actor_io_support.pl</text>
</g>
<!-- n2 -->
<g id="node3" class="node"><title>n2</title>
<polyline fill="none" stroke="#666666" points="565.416,-188 480.584,-188 "/>
<path fill="none" stroke="#666666" d="M480.584,-188C474.584,-188 468.584,-182 468.584,-176"/>
<polyline fill="none" stroke="#666666" points="468.584,-176 468.584,-164 "/>
<path fill="none" stroke="#666666" d="M468.584,-164C468.584,-158 474.584,-152 480.584,-152"/>
<polyline fill="none" stroke="#666666" points="480.584,-152 565.416,-152 "/>
<path fill="none" stroke="#666666" d="M565.416,-152C571.416,-152 577.416,-158 577.416,-164"/>
<polyline fill="none" stroke="#666666" points="577.416,-164 577.416,-176 "/>
<path fill="none" stroke="#666666" d="M577.416,-176C577.416,-182 571.416,-188 565.416,-188"/>
<text text-anchor="middle" x="523" y="-165.6" font-family="Helvetica,sans-Serif" font-size="11.00">src/node_session.pl</text>
</g>
<!-- n3 -->
<g id="node4" class="node"><title>n3</title>
<polyline fill="none" stroke="#666666" points="696.336,-188 609.664,-188 "/>
<path fill="none" stroke="#666666" d="M609.664,-188C603.664,-188 597.664,-182 597.664,-176"/>
<polyline fill="none" stroke="#666666" points="597.664,-176 597.664,-164 "/>
<path fill="none" stroke="#666666" d="M597.664,-164C597.664,-158 603.664,-152 609.664,-152"/>
<polyline fill="none" stroke="#666666" points="609.664,-152 696.336,-152 "/>
<path fill="none" stroke="#666666" d="M696.336,-152C702.336,-152 708.336,-158 708.336,-164"/>
<polyline fill="none" stroke="#666666" points="708.336,-164 708.336,-176 "/>
<path fill="none" stroke="#666666" d="M708.336,-176C708.336,-182 702.336,-188 696.336,-188"/>
<text text-anchor="middle" x="653" y="-165.6" font-family="Helvetica,sans-Serif" font-size="11.00">src/source_loader.pl</text>
</g>
<!-- n4 -->
<g id="node5" class="node"><title>n4</title>
<polyline fill="none" stroke="#666666" points="100.024,-36 23.9758,-36 "/>
<path fill="none" stroke="#666666" d="M23.9758,-36C17.9758,-36 11.9758,-30 11.9758,-24"/>
<polyline fill="none" stroke="#666666" points="11.9758,-24 11.9758,-12 "/>
<path fill="none" stroke="#666666" d="M11.9758,-12C11.9758,-6 17.9758,-0 23.9758,-0"/>
<polyline fill="none" stroke="#666666" points="23.9758,-0 100.024,-0 "/>
<path fill="none" stroke="#666666" d="M100.024,-0C106.024,-0 112.024,-6 112.024,-12"/>
<polyline fill="none" stroke="#666666" points="112.024,-12 112.024,-24 "/>
<path fill="none" stroke="#666666" d="M112.024,-24C112.024,-30 106.024,-36 100.024,-36"/>
<text text-anchor="middle" x="62" y="-13.6" font-family="Helvetica,sans-Serif" font-size="11.00">src/source_utils.pl</text>
</g>
<!-- n5 -->
<g id="node6" class="node"><title>n5</title>
<polyline fill="none" stroke="#666666" points="502.209,-264 407.791,-264 "/>
<path fill="none" stroke="#666666" d="M407.791,-264C401.791,-264 395.791,-258 395.791,-252"/>
<polyline fill="none" stroke="#666666" points="395.791,-252 395.791,-240 "/>
<path fill="none" stroke="#666666" d="M395.791,-240C395.791,-234 401.791,-228 407.791,-228"/>
<polyline fill="none" stroke="#666666" points="407.791,-228 502.209,-228 "/>
<path fill="none" stroke="#666666" d="M502.209,-228C508.209,-228 514.209,-234 514.209,-240"/>
<polyline fill="none" stroke="#666666" points="514.209,-240 514.209,-252 "/>
<path fill="none" stroke="#666666" d="M514.209,-252C514.209,-258 508.209,-264 502.209,-264"/>
<text text-anchor="middle" x="455" y="-241.6" font-family="Helvetica,sans-Serif" font-size="11.00">src/statechart_actor.pl</text>
</g>
<!-- n5&#45;&gt;n0 -->
<g id="edge2" class="edge"><title>n5&#45;&gt;n0</title>
<path fill="none" stroke="#555555" d="M395.728,-241.4C322.446,-235.569 204.056,-221.166 177,-188 140.3,-143.012 191.463,-75.8654 223.53,-41.3136"/>
<polygon fill="#555555" stroke="#555555" points="225.47,-42.8275 228.496,-36.0565 221.908,-39.4626 225.47,-42.8275"/>
</g>
<!-- n5&#45;&gt;n1 -->
<g id="edge4" class="edge"><title>n5&#45;&gt;n1</title>
<path fill="none" stroke="#555555" d="M439.229,-227.837C429.788,-217.563 417.685,-204.392 407.507,-193.317"/>
<polygon fill="#555555" stroke="#555555" points="409.226,-191.567 402.686,-188.07 405.618,-194.882 409.226,-191.567"/>
</g>
<!-- n5&#45;&gt;n2 -->
<g id="edge6" class="edge"><title>n5&#45;&gt;n2</title>
<path fill="none" stroke="#555555" d="M470.771,-227.837C480.212,-217.563 492.315,-204.392 502.493,-193.317"/>
<polygon fill="#555555" stroke="#555555" points="504.382,-194.882 507.314,-188.07 500.774,-191.567 504.382,-194.882"/>
</g>
<!-- n5&#45;&gt;n3 -->
<g id="edge8" class="edge"><title>n5&#45;&gt;n3</title>
<path fill="none" stroke="#555555" d="M500.923,-227.837C530.661,-216.723 569.471,-202.218 600.441,-190.643"/>
<polygon fill="#555555" stroke="#555555" points="601.627,-192.816 607.326,-188.07 599.911,-188.226 601.627,-192.816"/>
</g>
<!-- n6 -->
<g id="node7" class="node"><title>n6</title>
<polyline fill="none" stroke="#666666" points="293.244,-188 198.756,-188 "/>
<path fill="none" stroke="#666666" d="M198.756,-188C192.756,-188 186.756,-182 186.756,-176"/>
<polyline fill="none" stroke="#666666" points="186.756,-176 186.756,-164 "/>
<path fill="none" stroke="#666666" d="M186.756,-164C186.756,-158 192.756,-152 198.756,-152"/>
<polyline fill="none" stroke="#666666" points="198.756,-152 293.244,-152 "/>
<path fill="none" stroke="#666666" d="M293.244,-152C299.244,-152 305.244,-158 305.244,-164"/>
<polyline fill="none" stroke="#666666" points="305.244,-164 305.244,-176 "/>
<path fill="none" stroke="#666666" d="M305.244,-176C305.244,-182 299.244,-188 293.244,-188"/>
<text text-anchor="middle" x="246" y="-165.6" font-family="Helvetica,sans-Serif" font-size="11.00">src/statechart_exec.pl</text>
</g>
<!-- n5&#45;&gt;n6 -->
<g id="edge10" class="edge"><title>n5&#45;&gt;n6</title>
<path fill="none" stroke="#555555" d="M406.789,-227.93C375.276,-216.772 334.028,-202.168 301.201,-190.545"/>
<polygon fill="#555555" stroke="#555555" points="301.747,-188.139 294.33,-188.112 300.111,-192.758 301.747,-188.139"/>
</g>
<!-- n7 -->
<g id="node8" class="node"><title>n7</title>
<polyline fill="none" stroke="#666666" points="112.289,-112 11.7111,-112 "/>
<path fill="none" stroke="#666666" d="M11.7111,-112C5.71112,-112 -0.288881,-106 -0.288881,-100"/>
<polyline fill="none" stroke="#666666" points="-0.288881,-100 -0.288881,-88 "/>
<path fill="none" stroke="#666666" d="M-0.288881,-88C-0.288881,-82 5.71112,-76 11.7111,-76"/>
<polyline fill="none" stroke="#666666" points="11.7111,-76 112.289,-76 "/>
<path fill="none" stroke="#666666" d="M112.289,-76C118.289,-76 124.289,-82 124.289,-88"/>
<polyline fill="none" stroke="#666666" points="124.289,-88 124.289,-100 "/>
<path fill="none" stroke="#666666" d="M124.289,-100C124.289,-106 118.289,-112 112.289,-112"/>
<text text-anchor="middle" x="62" y="-89.6" font-family="Helvetica,sans-Serif" font-size="11.00">src/statechart_model.pl</text>
</g>
<!-- n5&#45;&gt;n7 -->
<g id="edge12" class="edge"><title>n5&#45;&gt;n7</title>
<path fill="none" stroke="#555555" d="M395.674,-239.12C316.837,-230.488 182.537,-212.692 140,-188 111.304,-171.342 88.3999,-139.993 75.0188,-118.327"/>
<polygon fill="#555555" stroke="#555555" points="77.049,-116.949 71.3382,-112.217 72.8518,-119.477 77.049,-116.949"/>
</g>
<!-- n8 -->
<g id="node9" class="node"><title>n8</title>
<polyline fill="none" stroke="#666666" points="485.327,-112 376.673,-112 "/>
<path fill="none" stroke="#666666" d="M376.673,-112C370.673,-112 364.673,-106 364.673,-100"/>
<polyline fill="none" stroke="#666666" points="364.673,-100 364.673,-88 "/>
<path fill="none" stroke="#666666" d="M364.673,-88C364.673,-82 370.673,-76 376.673,-76"/>
<polyline fill="none" stroke="#666666" points="376.673,-76 485.327,-76 "/>
<path fill="none" stroke="#666666" d="M485.327,-76C491.327,-76 497.327,-82 497.327,-88"/>
<polyline fill="none" stroke="#666666" points="497.327,-88 497.327,-100 "/>
<path fill="none" stroke="#666666" d="M497.327,-100C497.327,-106 491.327,-112 485.327,-112"/>
<text text-anchor="middle" x="431" y="-89.6" font-family="Helvetica,sans-Serif" font-size="11.00">src/statechart_runtime.pl</text>
</g>
<!-- n5&#45;&gt;n8 -->
<g id="edge14" class="edge"><title>n5&#45;&gt;n8</title>
<path fill="none" stroke="#555555" d="M514.543,-243.629C608.644,-239.357 775.464,-221.999 718,-152 691.458,-119.669 580.291,-105.346 504.364,-99.2422"/>
<polygon fill="#555555" stroke="#555555" points="504.3,-96.7798 497.13,-98.6768 503.918,-101.665 504.3,-96.7798"/>
</g>
<!-- n9 -->
<g id="node10" class="node"><title>n9</title>
<polyline fill="none" stroke="#666666" points="560.416,-36 475.584,-36 "/>
<path fill="none" stroke="#666666" d="M475.584,-36C469.584,-36 463.584,-30 463.584,-24"/>
<polyline fill="none" stroke="#666666" points="463.584,-24 463.584,-12 "/>
<path fill="none" stroke="#666666" d="M463.584,-12C463.584,-6 469.584,-0 475.584,-0"/>
<polyline fill="none" stroke="#666666" points="475.584,-0 560.416,-0 "/>
<path fill="none" stroke="#666666" d="M560.416,-0C566.416,-0 572.416,-6 572.416,-12"/>
<polyline fill="none" stroke="#666666" points="572.416,-12 572.416,-24 "/>
<path fill="none" stroke="#666666" d="M572.416,-24C572.416,-30 566.416,-36 560.416,-36"/>
<text text-anchor="middle" x="518" y="-13.6" font-family="Helvetica,sans-Serif" font-size="11.00">src/toplevel_actor.pl</text>
</g>
<!-- n5&#45;&gt;n9 -->
<g id="edge16" class="edge"><title>n5&#45;&gt;n9</title>
<path fill="none" stroke="#555555" d="M514.249,-241.691C588.99,-236.136 711.154,-221.99 739,-188 794.079,-120.768 662.541,-64.5535 579.517,-37.0851"/>
<polygon fill="#555555" stroke="#555555" points="580.05,-34.6819 572.636,-34.8371 578.529,-39.3397 580.05,-34.6819"/>
</g>
<!-- n6&#45;&gt;n0 -->
<g id="edge18" class="edge"><title>n6&#45;&gt;n0</title>
<path fill="none" stroke="#555555" d="M246,-151.793C246,-125.119 246,-73.6985 246,-43.2639"/>
<polygon fill="#555555" stroke="#555555" points="248.45,-43.0062 246,-36.0062 243.55,-43.0063 248.45,-43.0062"/>
</g>
<!-- n6&#45;&gt;n7 -->
<g id="edge20" class="edge"><title>n6&#45;&gt;n7</title>
<path fill="none" stroke="#555555" d="M203.324,-151.837C175.805,-140.769 139.926,-126.34 111.206,-114.789"/>
<polygon fill="#555555" stroke="#555555" points="111.853,-112.409 104.444,-112.07 110.025,-116.955 111.853,-112.409"/>
</g>
<!-- n6&#45;&gt;n8 -->
<g id="edge22" class="edge"><title>n6&#45;&gt;n8</title>
<path fill="none" stroke="#555555" d="M288.908,-151.837C316.577,-140.769 352.651,-126.34 381.527,-114.789"/>
<polygon fill="#555555" stroke="#555555" points="382.736,-116.945 388.325,-112.07 380.916,-112.395 382.736,-116.945"/>
</g>
<!-- n7&#45;&gt;n4 -->
<g id="edge24" class="edge"><title>n7&#45;&gt;n4</title>
<path fill="none" stroke="#555555" d="M62,-75.8369C62,-66.1236 62,-53.8206 62,-43.1472"/>
<polygon fill="#555555" stroke="#555555" points="64.4501,-43.07 62,-36.07 59.5501,-43.07 64.4501,-43.07"/>
</g>
<!-- n8&#45;&gt;n0 -->
<g id="edge26" class="edge"><title>n8&#45;&gt;n0</title>
<path fill="none" stroke="#555555" d="M388.092,-75.8369C357.032,-63.4127 315.379,-46.7518 285.208,-34.6832"/>
<polygon fill="#555555" stroke="#555555" points="285.978,-32.3525 278.569,-32.0275 284.158,-36.9021 285.978,-32.3525"/>
</g>
<!-- n8&#45;&gt;n9 -->
<g id="edge28" class="edge"><title>n8&#45;&gt;n9</title>
<path fill="none" stroke="#555555" d="M451.178,-75.8369C463.476,-65.3764 479.306,-51.9126 492.47,-40.7149"/>
<polygon fill="#555555" stroke="#555555" points="494.186,-42.4716 497.931,-36.07 491.012,-38.7391 494.186,-42.4716"/>
</g>
</g>
</svg>
