<?xml version="1.0" encoding="UTF-8" standalone="no"?>
<!DOCTYPE svg PUBLIC "-//W3C//DTD SVG 1.1//EN"
 "http://www.w3.org/Graphics/SVG/1.1/DTD/svg11.dtd">
<!-- Generated by graphviz version 2.28.0 (20111028.1807)
 -->
<!-- Title: dependency_graph Pages: 1 -->
<svg width="692pt" height="325pt"
 viewBox="0.00 0.00 692.09 324.80" xmlns="http://www.w3.org/2000/svg" xmlns:xlink="http://www.w3.org/1999/xlink">
<g id="graph1" class="graph" transform="scale(1 1) rotate(0) translate(14.4 310.4)">
<title>dependency_graph</title>
<polygon fill="white" stroke="white" points="-14.4,15.4 -14.4,-310.4 678.69,-310.4 678.69,15.4 -14.4,15.4"/>
<text text-anchor="middle" x="94.1572" y="-272" font-family="Helvetica,sans-Serif" font-size="20.00">Statechart Modules</text>
<!-- n0 -->
<g id="node1" class="node"><title>n0</title>
<polyline fill="none" stroke="#666666" points="235,-36 205,-36 "/>
<path fill="none" stroke="#666666" d="M205,-36C199,-36 193,-30 193,-24"/>
<polyline fill="none" stroke="#666666" points="193,-24 193,-12 "/>
<path fill="none" stroke="#666666" d="M193,-12C193,-6 199,-0 205,-0"/>
<polyline fill="none" stroke="#666666" points="205,-0 235,-0 "/>
<path fill="none" stroke="#666666" d="M235,-0C241,-0 247,-6 247,-12"/>
<polyline fill="none" stroke="#666666" points="247,-12 247,-24 "/>
<path fill="none" stroke="#666666" d="M247,-24C247,-30 241,-36 235,-36"/>
<text text-anchor="middle" x="220" y="-13.6" font-family="Helvetica,sans-Serif" font-size="11.00">actor.pl</text>
</g>
<!-- n1 -->
<g id="node2" class="node"><title>n1</title>
<polyline fill="none" stroke="#666666" points="383.172,-188 302.828,-188 "/>
<path fill="none" stroke="#666666" d="M302.828,-188C296.828,-188 290.828,-182 290.828,-176"/>
<polyline fill="none" stroke="#666666" points="290.828,-176 290.828,-164 "/>
<path fill="none" stroke="#666666" d="M290.828,-164C290.828,-158 296.828,-152 302.828,-152"/>
<polyline fill="none" stroke="#666666" points="302.828,-152 383.172,-152 "/>
<path fill="none" stroke="#666666" d="M383.172,-152C389.172,-152 395.172,-158 395.172,-164"/>
<polyline fill="none" stroke="#666666" points="395.172,-164 395.172,-176 "/>
<path fill="none" stroke="#666666" d="M395.172,-176C395.172,-182 389.172,-188 383.172,-188"/>
<text text-anchor="middle" x="343" y="-165.6" font-family="Helvetica,sans-Serif" font-size="11.00">actor_io_support.pl</text>
</g>
<!-- n2 -->
<g id="node3" class="node"><title>n2</title>
<polyline fill="none" stroke="#666666" points="495.131,-188 428.869,-188 "/>
<path fill="none" stroke="#666666" d="M428.869,-188C422.869,-188 416.869,-182 416.869,-176"/>
<polyline fill="none" stroke="#666666" points="416.869,-176 416.869,-164 "/>
<path fill="none" stroke="#666666" d="M416.869,-164C416.869,-158 422.869,-152 428.869,-152"/>
<polyline fill="none" stroke="#666666" points="428.869,-152 495.131,-152 "/>
<path fill="none" stroke="#666666" d="M495.131,-152C501.131,-152 507.131,-158 507.131,-164"/>
<polyline fill="none" stroke="#666666" points="507.131,-164 507.131,-176 "/>
<path fill="none" stroke="#666666" d="M507.131,-176C507.131,-182 501.131,-188 495.131,-188"/>
<text text-anchor="middle" x="462" y="-165.6" font-family="Helvetica,sans-Serif" font-size="11.00">node_session.pl</text>
</g>
<!-- n3 -->
<g id="node4" class="node"><title>n3</title>
<polyline fill="none" stroke="#666666" points="608.047,-188 539.953,-188 "/>
<path fill="none" stroke="#666666" d="M539.953,-188C533.953,-188 527.953,-182 527.953,-176"/>
<polyline fill="none" stroke="#666666" points="527.953,-176 527.953,-164 "/>
<path fill="none" stroke="#666666" d="M527.953,-164C527.953,-158 533.953,-152 539.953,-152"/>
<polyline fill="none" stroke="#666666" points="539.953,-152 608.047,-152 "/>
<path fill="none" stroke="#666666" d="M608.047,-152C614.047,-152 620.047,-158 620.047,-164"/>
<polyline fill="none" stroke="#666666" points="620.047,-164 620.047,-176 "/>
<path fill="none" stroke="#666666" d="M620.047,-176C620.047,-182 614.047,-188 608.047,-188"/>
<text text-anchor="middle" x="574" y="-165.6" font-family="Helvetica,sans-Serif" font-size="11.00">source_loader.pl</text>
</g>
<!-- n4 -->
<g id="node5" class="node"><title>n4</title>
<polyline fill="none" stroke="#666666" points="82.235,-36 23.765,-36 "/>
<path fill="none" stroke="#666666" d="M23.765,-36C17.765,-36 11.765,-30 11.765,-24"/>
<polyline fill="none" stroke="#666666" points="11.765,-24 11.765,-12 "/>
<path fill="none" stroke="#666666" d="M11.765,-12C11.765,-6 17.765,-0 23.765,-0"/>
<polyline fill="none" stroke="#666666" points="23.765,-0 82.235,-0 "/>
<path fill="none" stroke="#666666" d="M82.235,-0C88.235,-0 94.235,-6 94.235,-12"/>
<polyline fill="none" stroke="#666666" points="94.235,-12 94.235,-24 "/>
<path fill="none" stroke="#666666" d="M94.235,-24C94.235,-30 88.235,-36 82.235,-36"/>
<text text-anchor="middle" x="53" y="-13.6" font-family="Helvetica,sans-Serif" font-size="11.00">source_utils.pl</text>
</g>
<!-- n5 -->
<g id="node6" class="node"><title>n5</title>
<polyline fill="none" stroke="#666666" points="440.419,-264 363.581,-264 "/>
<path fill="none" stroke="#666666" d="M363.581,-264C357.581,-264 351.581,-258 351.581,-252"/>
<polyline fill="none" stroke="#666666" points="351.581,-252 351.581,-240 "/>
<path fill="none" stroke="#666666" d="M351.581,-240C351.581,-234 357.581,-228 363.581,-228"/>
<polyline fill="none" stroke="#666666" points="363.581,-228 440.419,-228 "/>
<path fill="none" stroke="#666666" d="M440.419,-228C446.419,-228 452.419,-234 452.419,-240"/>
<polyline fill="none" stroke="#666666" points="452.419,-240 452.419,-252 "/>
<path fill="none" stroke="#666666" d="M452.419,-252C452.419,-258 446.419,-264 440.419,-264"/>
<text text-anchor="middle" x="402" y="-241.6" font-family="Helvetica,sans-Serif" font-size="11.00">statechart_actor.pl</text>
</g>
<!-- n5&#45;&gt;n0 -->
<g id="edge2" class="edge"><title>n5&#45;&gt;n0</title>
<path fill="none" stroke="#555555" d="M351.486,-240.416C287.457,-233.44 182.551,-217.715 159,-188 123.651,-143.399 169.669,-76.534 199.032,-41.7919"/>
<polygon fill="#555555" stroke="#555555" points="201.227,-42.9973 203.941,-36.0954 197.516,-39.7982 201.227,-42.9973"/>
</g>
<!-- n5&#45;&gt;n1 -->
<g id="edge4" class="edge"><title>n5&#45;&gt;n1</title>
<path fill="none" stroke="#555555" d="M388.316,-227.837C380.199,-217.657 369.814,-204.632 361.034,-193.619"/>
<polygon fill="#555555" stroke="#555555" points="362.889,-192.016 356.61,-188.07 359.058,-195.071 362.889,-192.016"/>
</g>
<!-- n5&#45;&gt;n2 -->
<g id="edge6" class="edge"><title>n5&#45;&gt;n2</title>
<path fill="none" stroke="#555555" d="M415.916,-227.837C424.17,-217.657 434.731,-204.632 443.66,-193.619"/>
<polygon fill="#555555" stroke="#555555" points="445.654,-195.05 448.159,-188.07 441.848,-191.964 445.654,-195.05"/>
</g>
<!-- n5&#45;&gt;n3 -->
<g id="edge8" class="edge"><title>n5&#45;&gt;n3</title>
<path fill="none" stroke="#555555" d="M441.893,-227.837C467.509,-216.816 500.874,-202.461 527.663,-190.936"/>
<polygon fill="#555555" stroke="#555555" points="528.862,-193.087 534.324,-188.07 526.925,-188.586 528.862,-193.087"/>
</g>
<!-- n6 -->
<g id="node7" class="node"><title>n6</title>
<polyline fill="none" stroke="#666666" points="258.454,-188 181.546,-188 "/>
<path fill="none" stroke="#666666" d="M181.546,-188C175.546,-188 169.546,-182 169.546,-176"/>
<polyline fill="none" stroke="#666666" points="169.546,-176 169.546,-164 "/>
<path fill="none" stroke="#666666" d="M169.546,-164C169.546,-158 175.546,-152 181.546,-152"/>
<polyline fill="none" stroke="#666666" points="181.546,-152 258.454,-152 "/>
<path fill="none" stroke="#666666" d="M258.454,-152C264.454,-152 270.454,-158 270.454,-164"/>
<polyline fill="none" stroke="#666666" points="270.454,-164 270.454,-176 "/>
<path fill="none" stroke="#666666" d="M270.454,-176C270.454,-182 264.454,-188 258.454,-188"/>
<text text-anchor="middle" x="220" y="-165.6" font-family="Helvetica,sans-Serif" font-size="11.00">statechart_exec.pl</text>
</g>
<!-- n5&#45;&gt;n6 -->
<g id="edge10" class="edge"><title>n5&#45;&gt;n6</title>
<path fill="none" stroke="#555555" d="M359.788,-227.837C332.568,-216.769 297.079,-202.34 268.671,-190.789"/>
<polygon fill="#555555" stroke="#555555" points="269.39,-188.437 261.983,-188.07 267.545,-192.976 269.39,-188.437"/>
</g>
<!-- n7 -->
<g id="node8" class="node"><title>n7</title>
<polyline fill="none" stroke="#666666" points="94.4982,-112 11.5018,-112 "/>
<path fill="none" stroke="#666666" d="M11.5018,-112C5.50182,-112 -0.49818,-106 -0.49818,-100"/>
<polyline fill="none" stroke="#666666" points="-0.49818,-100 -0.49818,-88 "/>
<path fill="none" stroke="#666666" d="M-0.49818,-88C-0.49818,-82 5.50182,-76 11.5018,-76"/>
<polyline fill="none" stroke="#666666" points="11.5018,-76 94.4982,-76 "/>
<path fill="none" stroke="#666666" d="M94.4982,-76C100.498,-76 106.498,-82 106.498,-88"/>
<polyline fill="none" stroke="#666666" points="106.498,-88 106.498,-100 "/>
<path fill="none" stroke="#666666" d="M106.498,-100C106.498,-106 100.498,-112 94.4982,-112"/>
<text text-anchor="middle" x="53" y="-89.6" font-family="Helvetica,sans-Serif" font-size="11.00">statechart_model.pl</text>
</g>
<!-- n5&#45;&gt;n7 -->
<g id="edge12" class="edge"><title>n5&#45;&gt;n7</title>
<path fill="none" stroke="#555555" d="M351.473,-245.318C292.103,-243.43 192.734,-233.005 122,-188 95.4065,-171.08 75.5065,-140.003 64.0759,-118.456"/>
<polygon fill="#555555" stroke="#555555" points="66.1859,-117.202 60.8023,-112.101 61.8299,-119.446 66.1859,-117.202"/>
</g>
<!-- n8 -->
<g id="node9" class="node"><title>n8</title>
<polyline fill="none" stroke="#666666" points="429.038,-112 338.962,-112 "/>
<path fill="none" stroke="#666666" d="M338.962,-112C332.962,-112 326.962,-106 326.962,-100"/>
<polyline fill="none" stroke="#666666" points="326.962,-100 326.962,-88 "/>
<path fill="none" stroke="#666666" d="M326.962,-88C326.962,-82 332.962,-76 338.962,-76"/>
<polyline fill="none" stroke="#666666" points="338.962,-76 429.038,-76 "/>
<path fill="none" stroke="#666666" d="M429.038,-76C435.038,-76 441.038,-82 441.038,-88"/>
<polyline fill="none" stroke="#666666" points="441.038,-88 441.038,-100 "/>
<path fill="none" stroke="#666666" d="M441.038,-100C441.038,-106 435.038,-112 429.038,-112"/>
<text text-anchor="middle" x="384" y="-89.6" font-family="Helvetica,sans-Serif" font-size="11.00">statechart_runtime.pl</text>
</g>
<!-- n5&#45;&gt;n8 -->
<g id="edge14" class="edge"><title>n5&#45;&gt;n8</title>
<path fill="none" stroke="#555555" d="M452.624,-242.092C533.993,-235.525 679.939,-214.834 630,-152 607.662,-123.895 513.216,-108.421 448.071,-100.92"/>
<polygon fill="#555555" stroke="#555555" points="448.302,-98.4802 441.072,-100.131 447.753,-103.349 448.302,-98.4802"/>
</g>
<!-- n9 -->
<g id="node10" class="node"><title>n9</title>
<polyline fill="none" stroke="#666666" points="492.131,-36 425.869,-36 "/>
<path fill="none" stroke="#666666" d="M425.869,-36C419.869,-36 413.869,-30 413.869,-24"/>
<polyline fill="none" stroke="#666666" points="413.869,-24 413.869,-12 "/>
<path fill="none" stroke="#666666" d="M413.869,-12C413.869,-6 419.869,-0 425.869,-0"/>
<polyline fill="none" stroke="#666666" points="425.869,-0 492.131,-0 "/>
<path fill="none" stroke="#666666" d="M492.131,-0C498.131,-0 504.131,-6 504.131,-12"/>
<polyline fill="none" stroke="#666666" points="504.131,-12 504.131,-24 "/>
<path fill="none" stroke="#666666" d="M504.131,-24C504.131,-30 498.131,-36 492.131,-36"/>
<text text-anchor="middle" x="459" y="-13.6" font-family="Helvetica,sans-Serif" font-size="11.00">toplevel_actor.pl</text>
</g>
<!-- n5&#45;&gt;n9 -->
<g id="edge16" class="edge"><title>n5&#45;&gt;n9</title>
<path fill="none" stroke="#555555" d="M452.626,-240.721C518.107,-234.016 626.678,-218.519 651,-188 701.204,-125.005 583.858,-66.4306 511.202,-37.6417"/>
<polygon fill="#555555" stroke="#555555" points="511.729,-35.2171 504.317,-34.9495 509.944,-39.7806 511.729,-35.2171"/>
</g>
<!-- n6&#45;&gt;n0 -->
<g id="edge18" class="edge"><title>n6&#45;&gt;n0</title>
<path fill="none" stroke="#555555" d="M220,-151.793C220,-125.119 220,-73.6985 220,-43.2639"/>
<polygon fill="#555555" stroke="#555555" points="222.45,-43.0062 220,-36.0062 217.55,-43.0063 222.45,-43.0062"/>
</g>
<!-- n6&#45;&gt;n7 -->
<g id="edge20" class="edge"><title>n6&#45;&gt;n7</title>
<path fill="none" stroke="#555555" d="M181.267,-151.837C156.396,-140.816 124.001,-126.461 97.9898,-114.936"/>
<polygon fill="#555555" stroke="#555555" points="98.9153,-112.666 91.5229,-112.07 96.9301,-117.146 98.9153,-112.666"/>
</g>
<!-- n6&#45;&gt;n8 -->
<g id="edge22" class="edge"><title>n6&#45;&gt;n8</title>
<path fill="none" stroke="#555555" d="M258.037,-151.837C282.358,-140.863 314.005,-126.583 339.493,-115.082"/>
<polygon fill="#555555" stroke="#555555" points="340.796,-117.182 346.169,-112.07 338.781,-112.716 340.796,-117.182"/>
</g>
<!-- n7&#45;&gt;n4 -->
<g id="edge24" class="edge"><title>n7&#45;&gt;n4</title>
<path fill="none" stroke="#555555" d="M53,-75.8369C53,-66.1236 53,-53.8206 53,-43.1472"/>
<polygon fill="#555555" stroke="#555555" points="55.4501,-43.07 53,-36.07 50.5501,-43.07 55.4501,-43.07"/>
</g>
<!-- n8&#45;&gt;n0 -->
<g id="edge26" class="edge"><title>n8&#45;&gt;n0</title>
<path fill="none" stroke="#555555" d="M345.963,-75.8369C318.049,-63.2416 280.485,-46.292 253.658,-34.1871"/>
<polygon fill="#555555" stroke="#555555" points="254.469,-31.8655 247.081,-31.2196 252.454,-36.3319 254.469,-31.8655"/>
</g>
<!-- n8&#45;&gt;n9 -->
<g id="edge28" class="edge"><title>n8&#45;&gt;n9</title>
<path fill="none" stroke="#555555" d="M401.395,-75.8369C411.902,-65.4698 425.399,-52.1527 436.687,-41.0154"/>
<polygon fill="#555555" stroke="#555555" points="438.437,-42.7305 441.699,-36.07 434.996,-39.2424 438.437,-42.7305"/>
</g>
</g>
</svg>
