<?xml version="1.0" encoding="UTF-8" standalone="no"?>
<!DOCTYPE svg PUBLIC "-//W3C//DTD SVG 1.1//EN"
 "http://www.w3.org/Graphics/SVG/1.1/DTD/svg11.dtd">
<!-- Generated by graphviz version 2.28.0 (20111028.1807)
 -->
<!-- Title: dependency_graph Pages: 1 -->
<svg width="7136pt" height="325pt"
 viewBox="0.00 0.00 7135.80 324.80" xmlns="http://www.w3.org/2000/svg" xmlns:xlink="http://www.w3.org/1999/xlink">
<g id="graph1" class="graph" transform="scale(1 1) rotate(0) translate(14.4 310.4)">
<title>dependency_graph</title>
<polygon fill="white" stroke="white" points="-14.4,15.4 -14.4,-310.4 7122.4,-310.4 7122.4,15.4 -14.4,15.4"/>
<text text-anchor="middle" x="31.3398" y="-272" font-family="Helvetica,sans-Serif" font-size="20.00">Tests</text>
<!-- n0 -->
<g id="node1" class="node"><title>n0</title>
<polyline fill="none" stroke="#666666" points="176.06,-188 11.9396,-188 "/>
<path fill="none" stroke="#666666" d="M11.9396,-188C5.93957,-188 -0.0604334,-182 -0.0604334,-176"/>
<polyline fill="none" stroke="#666666" points="-0.0604334,-176 -0.0604334,-164 "/>
<path fill="none" stroke="#666666" d="M-0.0604334,-164C-0.0604334,-158 5.93957,-152 11.9396,-152"/>
<polyline fill="none" stroke="#666666" points="11.9396,-152 176.06,-152 "/>
<path fill="none" stroke="#666666" d="M176.06,-152C182.06,-152 188.06,-158 188.06,-164"/>
<polyline fill="none" stroke="#666666" points="188.06,-164 188.06,-176 "/>
<path fill="none" stroke="#666666" d="M188.06,-176C188.06,-182 182.06,-188 176.06,-188"/>
<text text-anchor="middle" x="94" y="-165.6" font-family="Helvetica,sans-Serif" font-size="11.00">examples/services/discovery_hub.pl</text>
</g>
<!-- n1 -->
<g id="node2" class="node"><title>n1</title>
<polyline fill="none" stroke="#666666" points="3312.33,-36 3173.67,-36 "/>
<path fill="none" stroke="#666666" d="M3173.67,-36C3167.67,-36 3161.67,-30 3161.67,-24"/>
<polyline fill="none" stroke="#666666" points="3161.67,-24 3161.67,-12 "/>
<path fill="none" stroke="#666666" d="M3161.67,-12C3161.67,-6 3167.67,-0 3173.67,-0"/>
<polyline fill="none" stroke="#666666" points="3173.67,-0 3312.33,-0 "/>
<path fill="none" stroke="#666666" d="M3312.33,-0C3318.33,-0 3324.33,-6 3324.33,-12"/>
<polyline fill="none" stroke="#666666" points="3324.33,-12 3324.33,-24 "/>
<path fill="none" stroke="#666666" d="M3324.33,-24C3324.33,-30 3318.33,-36 3312.33,-36"/>
<text text-anchor="middle" x="3243" y="-13.6" font-family="Helvetica,sans-Serif" font-size="11.00">prolog/web_prolog/actor_api.pl</text>
</g>
<!-- n2 -->
<g id="node3" class="node"><title>n2</title>
<polyline fill="none" stroke="#666666" points="6526.35,-112 6403.65,-112 "/>
<path fill="none" stroke="#666666" d="M6403.65,-112C6397.65,-112 6391.65,-106 6391.65,-100"/>
<polyline fill="none" stroke="#666666" points="6391.65,-100 6391.65,-88 "/>
<path fill="none" stroke="#666666" d="M6391.65,-88C6391.65,-82 6397.65,-76 6403.65,-76"/>
<polyline fill="none" stroke="#666666" points="6403.65,-76 6526.35,-76 "/>
<path fill="none" stroke="#666666" d="M6526.35,-76C6532.35,-76 6538.35,-82 6538.35,-88"/>
<polyline fill="none" stroke="#666666" points="6538.35,-88 6538.35,-100 "/>
<path fill="none" stroke="#666666" d="M6538.35,-100C6538.35,-106 6532.35,-112 6526.35,-112"/>
<text text-anchor="middle" x="6465" y="-89.6" font-family="Helvetica,sans-Serif" font-size="11.00">prolog/web_prolog/actors.pl</text>
</g>
<!-- n3 -->
<g id="node4" class="node"><title>n3</title>
<polyline fill="none" stroke="#666666" points="5342.41,-112 5191.59,-112 "/>
<path fill="none" stroke="#666666" d="M5191.59,-112C5185.59,-112 5179.59,-106 5179.59,-100"/>
<polyline fill="none" stroke="#666666" points="5179.59,-100 5179.59,-88 "/>
<path fill="none" stroke="#666666" d="M5179.59,-88C5179.59,-82 5185.59,-76 5191.59,-76"/>
<polyline fill="none" stroke="#666666" points="5191.59,-76 5342.41,-76 "/>
<path fill="none" stroke="#666666" d="M5342.41,-76C5348.41,-76 5354.41,-82 5354.41,-88"/>
<polyline fill="none" stroke="#666666" points="5354.41,-88 5354.41,-100 "/>
<path fill="none" stroke="#666666" d="M5354.41,-100C5354.41,-106 5348.41,-112 5342.41,-112"/>
<text text-anchor="middle" x="5267" y="-89.6" font-family="Helvetica,sans-Serif" font-size="11.00">prolog/web_prolog/composition.pl</text>
</g>
<!-- n4 -->
<g id="node5" class="node"><title>n4</title>
<polyline fill="none" stroke="#666666" points="6936.28,-112 6789.72,-112 "/>
<path fill="none" stroke="#666666" d="M6789.72,-112C6783.72,-112 6777.72,-106 6777.72,-100"/>
<polyline fill="none" stroke="#666666" points="6777.72,-100 6777.72,-88 "/>
<path fill="none" stroke="#666666" d="M6777.72,-88C6777.72,-82 6783.72,-76 6789.72,-76"/>
<polyline fill="none" stroke="#666666" points="6789.72,-76 6936.28,-76 "/>
<path fill="none" stroke="#666666" d="M6936.28,-76C6942.28,-76 6948.28,-82 6948.28,-88"/>
<polyline fill="none" stroke="#666666" points="6948.28,-88 6948.28,-100 "/>
<path fill="none" stroke="#666666" d="M6948.28,-100C6948.28,-106 6942.28,-112 6936.28,-112"/>
<text text-anchor="middle" x="6863" y="-89.6" font-family="Helvetica,sans-Serif" font-size="11.00">prolog/web_prolog/distribution.pl</text>
</g>
<!-- n5 -->
<g id="node6" class="node"><title>n5</title>
<polyline fill="none" stroke="#666666" points="2244.27,-112 2067.73,-112 "/>
<path fill="none" stroke="#666666" d="M2067.73,-112C2061.73,-112 2055.73,-106 2055.73,-100"/>
<polyline fill="none" stroke="#666666" points="2055.73,-100 2055.73,-88 "/>
<path fill="none" stroke="#666666" d="M2055.73,-88C2055.73,-82 2061.73,-76 2067.73,-76"/>
<polyline fill="none" stroke="#666666" points="2067.73,-76 2244.27,-76 "/>
<path fill="none" stroke="#666666" d="M2244.27,-76C2250.27,-76 2256.27,-82 2256.27,-88"/>
<polyline fill="none" stroke="#666666" points="2256.27,-88 2256.27,-100 "/>
<path fill="none" stroke="#666666" d="M2256.27,-100C2256.27,-106 2250.27,-112 2244.27,-112"/>
<text text-anchor="middle" x="2156" y="-89.6" font-family="Helvetica,sans-Serif" font-size="11.00">prolog/web_prolog/dollar_expansion.pl</text>
</g>
<!-- n6 -->
<g id="node7" class="node"><title>n6</title>
<polyline fill="none" stroke="#666666" points="5798.2,-112 5643.8,-112 "/>
<path fill="none" stroke="#666666" d="M5643.8,-112C5637.8,-112 5631.8,-106 5631.8,-100"/>
<polyline fill="none" stroke="#666666" points="5631.8,-100 5631.8,-88 "/>
<path fill="none" stroke="#666666" d="M5631.8,-88C5631.8,-82 5637.8,-76 5643.8,-76"/>
<polyline fill="none" stroke="#666666" points="5643.8,-76 5798.2,-76 "/>
<path fill="none" stroke="#666666" d="M5798.2,-76C5804.2,-76 5810.2,-82 5810.2,-88"/>
<polyline fill="none" stroke="#666666" points="5810.2,-88 5810.2,-100 "/>
<path fill="none" stroke="#666666" d="M5810.2,-100C5810.2,-106 5804.2,-112 5798.2,-112"/>
<text text-anchor="middle" x="5721" y="-89.6" font-family="Helvetica,sans-Serif" font-size="11.00">prolog/web_prolog/first_solution.pl</text>
</g>
<!-- n7 -->
<g id="node8" class="node"><title>n7</title>
<polyline fill="none" stroke="#666666" points="1071.46,-112 920.539,-112 "/>
<path fill="none" stroke="#666666" d="M920.539,-112C914.539,-112 908.539,-106 908.539,-100"/>
<polyline fill="none" stroke="#666666" points="908.539,-100 908.539,-88 "/>
<path fill="none" stroke="#666666" d="M908.539,-88C908.539,-82 914.539,-76 920.539,-76"/>
<polyline fill="none" stroke="#666666" points="920.539,-76 1071.46,-76 "/>
<path fill="none" stroke="#666666" d="M1071.46,-76C1077.46,-76 1083.46,-82 1083.46,-88"/>
<polyline fill="none" stroke="#666666" points="1083.46,-88 1083.46,-100 "/>
<path fill="none" stroke="#666666" d="M1083.46,-100C1083.46,-106 1077.46,-112 1071.46,-112"/>
<text text-anchor="middle" x="996" y="-89.6" font-family="Helvetica,sans-Serif" font-size="11.00">prolog/web_prolog/goal_walker.pl</text>
</g>
<!-- n8 -->
<g id="node9" class="node"><title>n8</title>
<polyline fill="none" stroke="#666666" points="6703.16,-112 6570.84,-112 "/>
<path fill="none" stroke="#666666" d="M6570.84,-112C6564.84,-112 6558.84,-106 6558.84,-100"/>
<polyline fill="none" stroke="#666666" points="6558.84,-100 6558.84,-88 "/>
<path fill="none" stroke="#666666" d="M6558.84,-88C6558.84,-82 6564.84,-76 6570.84,-76"/>
<polyline fill="none" stroke="#666666" points="6570.84,-76 6703.16,-76 "/>
<path fill="none" stroke="#666666" d="M6703.16,-76C6709.16,-76 6715.16,-82 6715.16,-88"/>
<polyline fill="none" stroke="#666666" points="6715.16,-88 6715.16,-100 "/>
<path fill="none" stroke="#666666" d="M6715.16,-100C6715.16,-106 6709.16,-112 6703.16,-112"/>
<text text-anchor="middle" x="6637" y="-89.6" font-family="Helvetica,sans-Serif" font-size="11.00">prolog/web_prolog/isolation.pl</text>
</g>
<!-- n9 -->
<g id="node10" class="node"><title>n9</title>
<polyline fill="none" stroke="#666666" points="2850.24,-36 2733.76,-36 "/>
<path fill="none" stroke="#666666" d="M2733.76,-36C2727.76,-36 2721.76,-30 2721.76,-24"/>
<polyline fill="none" stroke="#666666" points="2721.76,-24 2721.76,-12 "/>
<path fill="none" stroke="#666666" d="M2721.76,-12C2721.76,-6 2727.76,-0 2733.76,-0"/>
<polyline fill="none" stroke="#666666" points="2733.76,-0 2850.24,-0 "/>
<path fill="none" stroke="#666666" d="M2850.24,-0C2856.24,-0 2862.24,-6 2862.24,-12"/>
<polyline fill="none" stroke="#666666" points="2862.24,-12 2862.24,-24 "/>
<path fill="none" stroke="#666666" d="M2862.24,-24C2862.24,-30 2856.24,-36 2850.24,-36"/>
<text text-anchor="middle" x="2792" y="-13.6" font-family="Helvetica,sans-Serif" font-size="11.00">prolog/web_prolog/node.pl</text>
</g>
<!-- n10 -->
<g id="node11" class="node"><title>n10</title>
<polyline fill="none" stroke="#666666" points="2433.38,-112 2288.62,-112 "/>
<path fill="none" stroke="#666666" d="M2288.62,-112C2282.62,-112 2276.62,-106 2276.62,-100"/>
<polyline fill="none" stroke="#666666" points="2276.62,-100 2276.62,-88 "/>
<path fill="none" stroke="#666666" d="M2276.62,-88C2276.62,-82 2282.62,-76 2288.62,-76"/>
<polyline fill="none" stroke="#666666" points="2288.62,-76 2433.38,-76 "/>
<path fill="none" stroke="#666666" d="M2433.38,-76C2439.38,-76 2445.38,-82 2445.38,-88"/>
<polyline fill="none" stroke="#666666" points="2445.38,-88 2445.38,-100 "/>
<path fill="none" stroke="#666666" d="M2445.38,-100C2445.38,-106 2439.38,-112 2433.38,-112"/>
<text text-anchor="middle" x="2361" y="-89.6" font-family="Helvetica,sans-Serif" font-size="11.00">prolog/web_prolog/node_auth.pl</text>
</g>
<!-- n11 -->
<g id="node12" class="node"><title>n11</title>
<polyline fill="none" stroke="#666666" points="2659.39,-112 2478.61,-112 "/>
<path fill="none" stroke="#666666" d="M2478.61,-112C2472.61,-112 2466.61,-106 2466.61,-100"/>
<polyline fill="none" stroke="#666666" points="2466.61,-100 2466.61,-88 "/>
<path fill="none" stroke="#666666" d="M2466.61,-88C2466.61,-82 2472.61,-76 2478.61,-76"/>
<polyline fill="none" stroke="#666666" points="2478.61,-76 2659.39,-76 "/>
<path fill="none" stroke="#666666" d="M2659.39,-76C2665.39,-76 2671.39,-82 2671.39,-88"/>
<polyline fill="none" stroke="#666666" points="2671.39,-88 2671.39,-100 "/>
<path fill="none" stroke="#666666" d="M2671.39,-100C2671.39,-106 2665.39,-112 2659.39,-112"/>
<text text-anchor="middle" x="2569" y="-89.6" font-family="Helvetica,sans-Serif" font-size="11.00">prolog/web_prolog/node_call_context.pl</text>
</g>
<!-- n12 -->
<g id="node13" class="node"><title>n12</title>
<polyline fill="none" stroke="#666666" points="3102.14,-112 2923.86,-112 "/>
<path fill="none" stroke="#666666" d="M2923.86,-112C2917.86,-112 2911.86,-106 2911.86,-100"/>
<polyline fill="none" stroke="#666666" points="2911.86,-100 2911.86,-88 "/>
<path fill="none" stroke="#666666" d="M2911.86,-88C2911.86,-82 2917.86,-76 2923.86,-76"/>
<polyline fill="none" stroke="#666666" points="2923.86,-76 3102.14,-76 "/>
<path fill="none" stroke="#666666" d="M3102.14,-76C3108.14,-76 3114.14,-82 3114.14,-88"/>
<polyline fill="none" stroke="#666666" points="3114.14,-88 3114.14,-100 "/>
<path fill="none" stroke="#666666" d="M3114.14,-100C3114.14,-106 3108.14,-112 3102.14,-112"/>
<text text-anchor="middle" x="3013" y="-89.6" font-family="Helvetica,sans-Serif" font-size="11.00">prolog/web_prolog/node_capabilities.pl</text>
</g>
<!-- n13 -->
<g id="node14" class="node"><title>n13</title>
<polyline fill="none" stroke="#666666" points="5599.33,-112 5386.67,-112 "/>
<path fill="none" stroke="#666666" d="M5386.67,-112C5380.67,-112 5374.67,-106 5374.67,-100"/>
<polyline fill="none" stroke="#666666" points="5374.67,-100 5374.67,-88 "/>
<path fill="none" stroke="#666666" d="M5374.67,-88C5374.67,-82 5380.67,-76 5386.67,-76"/>
<polyline fill="none" stroke="#666666" points="5386.67,-76 5599.33,-76 "/>
<path fill="none" stroke="#666666" d="M5599.33,-76C5605.33,-76 5611.33,-82 5611.33,-88"/>
<polyline fill="none" stroke="#666666" points="5611.33,-88 5611.33,-100 "/>
<path fill="none" stroke="#666666" d="M5611.33,-100C5611.33,-106 5605.33,-112 5599.33,-112"/>
<text text-anchor="middle" x="5493" y="-89.6" font-family="Helvetica,sans-Serif" font-size="11.00">prolog/web_prolog/node_execution_context.pl</text>
</g>
<!-- n14 -->
<g id="node15" class="node"><title>n14</title>
<polyline fill="none" stroke="#666666" points="3582.12,-112 3383.88,-112 "/>
<path fill="none" stroke="#666666" d="M3383.88,-112C3377.88,-112 3371.88,-106 3371.88,-100"/>
<polyline fill="none" stroke="#666666" points="3371.88,-100 3371.88,-88 "/>
<path fill="none" stroke="#666666" d="M3371.88,-88C3371.88,-82 3377.88,-76 3383.88,-76"/>
<polyline fill="none" stroke="#666666" points="3383.88,-76 3582.12,-76 "/>
<path fill="none" stroke="#666666" d="M3582.12,-76C3588.12,-76 3594.12,-82 3594.12,-88"/>
<polyline fill="none" stroke="#666666" points="3594.12,-88 3594.12,-100 "/>
<path fill="none" stroke="#666666" d="M3594.12,-100C3594.12,-106 3588.12,-112 3582.12,-112"/>
<text text-anchor="middle" x="3483" y="-89.6" font-family="Helvetica,sans-Serif" font-size="11.00">prolog/web_prolog/node_principal_policy.pl</text>
</g>
<!-- n15 -->
<g id="node16" class="node"><title>n15</title>
<polyline fill="none" stroke="#666666" points="4937.37,-112 4750.63,-112 "/>
<path fill="none" stroke="#666666" d="M4750.63,-112C4744.63,-112 4738.63,-106 4738.63,-100"/>
<polyline fill="none" stroke="#666666" points="4738.63,-100 4738.63,-88 "/>
<path fill="none" stroke="#666666" d="M4738.63,-88C4738.63,-82 4744.63,-76 4750.63,-76"/>
<polyline fill="none" stroke="#666666" points="4750.63,-76 4937.37,-76 "/>
<path fill="none" stroke="#666666" d="M4937.37,-76C4943.37,-76 4949.37,-82 4949.37,-88"/>
<polyline fill="none" stroke="#666666" points="4949.37,-88 4949.37,-100 "/>
<path fill="none" stroke="#666666" d="M4949.37,-100C4949.37,-106 4943.37,-112 4937.37,-112"/>
<text text-anchor="middle" x="4844" y="-89.6" font-family="Helvetica,sans-Serif" font-size="11.00">prolog/web_prolog/node_profile_policy.pl</text>
</g>
<!-- n16 -->
<g id="node17" class="node"><title>n16</title>
<polyline fill="none" stroke="#666666" points="3819.46,-112 3626.54,-112 "/>
<path fill="none" stroke="#666666" d="M3626.54,-112C3620.54,-112 3614.54,-106 3614.54,-100"/>
<polyline fill="none" stroke="#666666" points="3614.54,-100 3614.54,-88 "/>
<path fill="none" stroke="#666666" d="M3614.54,-88C3614.54,-82 3620.54,-76 3626.54,-76"/>
<polyline fill="none" stroke="#666666" points="3626.54,-76 3819.46,-76 "/>
<path fill="none" stroke="#666666" d="M3819.46,-76C3825.46,-76 3831.46,-82 3831.46,-88"/>
<polyline fill="none" stroke="#666666" points="3831.46,-88 3831.46,-100 "/>
<path fill="none" stroke="#666666" d="M3831.46,-100C3831.46,-106 3825.46,-112 3819.46,-112"/>
<text text-anchor="middle" x="3723" y="-89.6" font-family="Helvetica,sans-Serif" font-size="11.00">prolog/web_prolog/node_relation_policy.pl</text>
</g>
<!-- n17 -->
<g id="node18" class="node"><title>n17</title>
<polyline fill="none" stroke="#666666" points="4032.27,-112 3863.73,-112 "/>
<path fill="none" stroke="#666666" d="M3863.73,-112C3857.73,-112 3851.73,-106 3851.73,-100"/>
<polyline fill="none" stroke="#666666" points="3851.73,-100 3851.73,-88 "/>
<path fill="none" stroke="#666666" d="M3851.73,-88C3851.73,-82 3857.73,-76 3863.73,-76"/>
<polyline fill="none" stroke="#666666" points="3863.73,-76 4032.27,-76 "/>
<path fill="none" stroke="#666666" d="M4032.27,-76C4038.27,-76 4044.27,-82 4044.27,-88"/>
<polyline fill="none" stroke="#666666" points="4044.27,-88 4044.27,-100 "/>
<path fill="none" stroke="#666666" d="M4044.27,-100C4044.27,-106 4038.27,-112 4032.27,-112"/>
<text text-anchor="middle" x="3948" y="-89.6" font-family="Helvetica,sans-Serif" font-size="11.00">prolog/web_prolog/node_response.pl</text>
</g>
<!-- n18 -->
<g id="node19" class="node"><title>n18</title>
<polyline fill="none" stroke="#666666" points="1348.31,-112 1157.69,-112 "/>
<path fill="none" stroke="#666666" d="M1157.69,-112C1151.69,-112 1145.69,-106 1145.69,-100"/>
<polyline fill="none" stroke="#666666" points="1145.69,-100 1145.69,-88 "/>
<path fill="none" stroke="#666666" d="M1145.69,-88C1145.69,-82 1151.69,-76 1157.69,-76"/>
<polyline fill="none" stroke="#666666" points="1157.69,-76 1348.31,-76 "/>
<path fill="none" stroke="#666666" d="M1348.31,-76C1354.31,-76 1360.31,-82 1360.31,-88"/>
<polyline fill="none" stroke="#666666" points="1360.31,-88 1360.31,-100 "/>
<path fill="none" stroke="#666666" d="M1360.31,-100C1360.31,-106 1354.31,-112 1348.31,-112"/>
<text text-anchor="middle" x="1253" y="-89.6" font-family="Helvetica,sans-Serif" font-size="11.00">prolog/web_prolog/node_runtime_state.pl</text>
</g>
<!-- n19 -->
<g id="node20" class="node"><title>n19</title>
<polyline fill="none" stroke="#666666" points="5146.52,-112 4981.48,-112 "/>
<path fill="none" stroke="#666666" d="M4981.48,-112C4975.48,-112 4969.48,-106 4969.48,-100"/>
<polyline fill="none" stroke="#666666" points="4969.48,-100 4969.48,-88 "/>
<path fill="none" stroke="#666666" d="M4969.48,-88C4969.48,-82 4975.48,-76 4981.48,-76"/>
<polyline fill="none" stroke="#666666" points="4981.48,-76 5146.52,-76 "/>
<path fill="none" stroke="#666666" d="M5146.52,-76C5152.52,-76 5158.52,-82 5158.52,-88"/>
<polyline fill="none" stroke="#666666" points="5158.52,-88 5158.52,-100 "/>
<path fill="none" stroke="#666666" d="M5158.52,-100C5158.52,-106 5152.52,-112 5146.52,-112"/>
<text text-anchor="middle" x="5064" y="-89.6" font-family="Helvetica,sans-Serif" font-size="11.00">prolog/web_prolog/node_sandbox.pl</text>
</g>
<!-- n20 -->
<g id="node21" class="node"><title>n20</title>
<polyline fill="none" stroke="#666666" points="1553.3,-112 1392.7,-112 "/>
<path fill="none" stroke="#666666" d="M1392.7,-112C1386.7,-112 1380.7,-106 1380.7,-100"/>
<polyline fill="none" stroke="#666666" points="1380.7,-100 1380.7,-88 "/>
<path fill="none" stroke="#666666" d="M1380.7,-88C1380.7,-82 1386.7,-76 1392.7,-76"/>
<polyline fill="none" stroke="#666666" points="1392.7,-76 1553.3,-76 "/>
<path fill="none" stroke="#666666" d="M1553.3,-76C1559.3,-76 1565.3,-82 1565.3,-88"/>
<polyline fill="none" stroke="#666666" points="1565.3,-88 1565.3,-100 "/>
<path fill="none" stroke="#666666" d="M1565.3,-100C1565.3,-106 1559.3,-112 1553.3,-112"/>
<text text-anchor="middle" x="1473" y="-89.6" font-family="Helvetica,sans-Serif" font-size="11.00">prolog/web_prolog/node_session.pl</text>
</g>
<!-- n21 -->
<g id="node22" class="node"><title>n21</title>
<polyline fill="none" stroke="#666666" points="1796.24,-112 1597.76,-112 "/>
<path fill="none" stroke="#666666" d="M1597.76,-112C1591.76,-112 1585.76,-106 1585.76,-100"/>
<polyline fill="none" stroke="#666666" points="1585.76,-100 1585.76,-88 "/>
<path fill="none" stroke="#666666" d="M1585.76,-88C1585.76,-82 1591.76,-76 1597.76,-76"/>
<polyline fill="none" stroke="#666666" points="1597.76,-76 1796.24,-76 "/>
<path fill="none" stroke="#666666" d="M1796.24,-76C1802.24,-76 1808.24,-82 1808.24,-88"/>
<polyline fill="none" stroke="#666666" points="1808.24,-88 1808.24,-100 "/>
<path fill="none" stroke="#666666" d="M1808.24,-100C1808.24,-106 1802.24,-112 1796.24,-112"/>
<text text-anchor="middle" x="1697" y="-89.6" font-family="Helvetica,sans-Serif" font-size="11.00">prolog/web_prolog/node_startup_options.pl</text>
</g>
<!-- n22 -->
<g id="node23" class="node"><title>n22</title>
<polyline fill="none" stroke="#666666" points="6147.99,-112 6020.01,-112 "/>
<path fill="none" stroke="#666666" d="M6020.01,-112C6014.01,-112 6008.01,-106 6008.01,-100"/>
<polyline fill="none" stroke="#666666" points="6008.01,-100 6008.01,-88 "/>
<path fill="none" stroke="#666666" d="M6008.01,-88C6008.01,-82 6014.01,-76 6020.01,-76"/>
<polyline fill="none" stroke="#666666" points="6020.01,-76 6147.99,-76 "/>
<path fill="none" stroke="#666666" d="M6147.99,-76C6153.99,-76 6159.99,-82 6159.99,-88"/>
<polyline fill="none" stroke="#666666" points="6159.99,-88 6159.99,-100 "/>
<path fill="none" stroke="#666666" d="M6159.99,-100C6159.99,-106 6153.99,-112 6147.99,-112"/>
<text text-anchor="middle" x="6084" y="-89.6" font-family="Helvetica,sans-Serif" font-size="11.00">prolog/web_prolog/parallel.pl</text>
</g>
<!-- n23 -->
<g id="node24" class="node"><title>n23</title>
<polyline fill="none" stroke="#666666" points="5975.16,-112 5842.84,-112 "/>
<path fill="none" stroke="#666666" d="M5842.84,-112C5836.84,-112 5830.84,-106 5830.84,-100"/>
<polyline fill="none" stroke="#666666" points="5830.84,-100 5830.84,-88 "/>
<path fill="none" stroke="#666666" d="M5830.84,-88C5830.84,-82 5836.84,-76 5842.84,-76"/>
<polyline fill="none" stroke="#666666" points="5842.84,-76 5975.16,-76 "/>
<path fill="none" stroke="#666666" d="M5975.16,-76C5981.16,-76 5987.16,-82 5987.16,-88"/>
<polyline fill="none" stroke="#666666" points="5987.16,-88 5987.16,-100 "/>
<path fill="none" stroke="#666666" d="M5987.16,-100C5987.16,-106 5981.16,-112 5975.16,-112"/>
<text text-anchor="middle" x="5909" y="-89.6" font-family="Helvetica,sans-Serif" font-size="11.00">prolog/web_prolog/pid_utils.pl</text>
</g>
<!-- n24 -->
<g id="node25" class="node"><title>n24</title>
<polyline fill="none" stroke="#666666" points="2023.32,-112 1840.68,-112 "/>
<path fill="none" stroke="#666666" d="M1840.68,-112C1834.68,-112 1828.68,-106 1828.68,-100"/>
<polyline fill="none" stroke="#666666" points="1828.68,-100 1828.68,-88 "/>
<path fill="none" stroke="#666666" d="M1828.68,-88C1828.68,-82 1834.68,-76 1840.68,-76"/>
<polyline fill="none" stroke="#666666" points="1840.68,-76 2023.32,-76 "/>
<path fill="none" stroke="#666666" d="M2023.32,-76C2029.32,-76 2035.32,-82 2035.32,-88"/>
<polyline fill="none" stroke="#666666" points="2035.32,-88 2035.32,-100 "/>
<path fill="none" stroke="#666666" d="M2035.32,-100C2035.32,-106 2029.32,-112 2023.32,-112"/>
<text text-anchor="middle" x="1932" y="-89.6" font-family="Helvetica,sans-Serif" font-size="11.00">prolog/web_prolog/public_goal_guard.pl</text>
</g>
<!-- n25 -->
<g id="node26" class="node"><title>n25</title>
<polyline fill="none" stroke="#666666" points="7088.35,-112 6979.65,-112 "/>
<path fill="none" stroke="#666666" d="M6979.65,-112C6973.65,-112 6967.65,-106 6967.65,-100"/>
<polyline fill="none" stroke="#666666" points="6967.65,-100 6967.65,-88 "/>
<path fill="none" stroke="#666666" d="M6967.65,-88C6967.65,-82 6973.65,-76 6979.65,-76"/>
<polyline fill="none" stroke="#666666" points="6979.65,-76 7088.35,-76 "/>
<path fill="none" stroke="#666666" d="M7088.35,-76C7094.35,-76 7100.35,-82 7100.35,-88"/>
<polyline fill="none" stroke="#666666" points="7100.35,-88 7100.35,-100 "/>
<path fill="none" stroke="#666666" d="M7100.35,-100C7100.35,-106 7094.35,-112 7088.35,-112"/>
<text text-anchor="middle" x="7034" y="-89.6" font-family="Helvetica,sans-Serif" font-size="11.00">prolog/web_prolog/rpc.pl</text>
</g>
<!-- n26 -->
<g id="node27" class="node"><title>n26</title>
<polyline fill="none" stroke="#666666" points="4706.29,-112 4553.71,-112 "/>
<path fill="none" stroke="#666666" d="M4553.71,-112C4547.71,-112 4541.71,-106 4541.71,-100"/>
<polyline fill="none" stroke="#666666" points="4541.71,-100 4541.71,-88 "/>
<path fill="none" stroke="#666666" d="M4541.71,-88C4541.71,-82 4547.71,-76 4553.71,-76"/>
<polyline fill="none" stroke="#666666" points="4553.71,-76 4706.29,-76 "/>
<path fill="none" stroke="#666666" d="M4706.29,-76C4712.29,-76 4718.29,-82 4718.29,-88"/>
<polyline fill="none" stroke="#666666" points="4718.29,-88 4718.29,-100 "/>
<path fill="none" stroke="#666666" d="M4718.29,-100C4718.29,-106 4712.29,-112 4706.29,-112"/>
<text text-anchor="middle" x="4630" y="-89.6" font-family="Helvetica,sans-Serif" font-size="11.00">prolog/web_prolog/server_actor.pl</text>
</g>
<!-- n27 -->
<g id="node28" class="node"><title>n27</title>
<polyline fill="none" stroke="#666666" points="4508.59,-112 4337.41,-112 "/>
<path fill="none" stroke="#666666" d="M4337.41,-112C4331.41,-112 4325.41,-106 4325.41,-100"/>
<polyline fill="none" stroke="#666666" points="4325.41,-100 4325.41,-88 "/>
<path fill="none" stroke="#666666" d="M4325.41,-88C4325.41,-82 4331.41,-76 4337.41,-76"/>
<polyline fill="none" stroke="#666666" points="4337.41,-76 4508.59,-76 "/>
<path fill="none" stroke="#666666" d="M4508.59,-76C4514.59,-76 4520.59,-82 4520.59,-88"/>
<polyline fill="none" stroke="#666666" points="4520.59,-88 4520.59,-100 "/>
<path fill="none" stroke="#666666" d="M4520.59,-100C4520.59,-106 4514.59,-112 4508.59,-112"/>
<text text-anchor="middle" x="4423" y="-89.6" font-family="Helvetica,sans-Serif" font-size="11.00">prolog/web_prolog/statechart_actor.pl</text>
</g>
<!-- n28 -->
<g id="node29" class="node"><title>n28</title>
<polyline fill="none" stroke="#666666" points="4292.42,-112 4119.58,-112 "/>
<path fill="none" stroke="#666666" d="M4119.58,-112C4113.58,-112 4107.58,-106 4107.58,-100"/>
<polyline fill="none" stroke="#666666" points="4107.58,-100 4107.58,-88 "/>
<path fill="none" stroke="#666666" d="M4107.58,-88C4107.58,-82 4113.58,-76 4119.58,-76"/>
<polyline fill="none" stroke="#666666" points="4119.58,-76 4292.42,-76 "/>
<path fill="none" stroke="#666666" d="M4292.42,-76C4298.42,-76 4304.42,-82 4304.42,-88"/>
<polyline fill="none" stroke="#666666" points="4304.42,-88 4304.42,-100 "/>
<path fill="none" stroke="#666666" d="M4304.42,-100C4304.42,-106 4298.42,-112 4292.42,-112"/>
<text text-anchor="middle" x="4206" y="-89.6" font-family="Helvetica,sans-Serif" font-size="11.00">prolog/web_prolog/supervisor_actor.pl</text>
</g>
<!-- n29 -->
<g id="node30" class="node"><title>n29</title>
<polyline fill="none" stroke="#666666" points="6359.38,-112 6192.62,-112 "/>
<path fill="none" stroke="#666666" d="M6192.62,-112C6186.62,-112 6180.62,-106 6180.62,-100"/>
<polyline fill="none" stroke="#666666" points="6180.62,-100 6180.62,-88 "/>
<path fill="none" stroke="#666666" d="M6180.62,-88C6180.62,-82 6186.62,-76 6192.62,-76"/>
<polyline fill="none" stroke="#666666" points="6192.62,-76 6359.38,-76 "/>
<path fill="none" stroke="#666666" d="M6359.38,-76C6365.38,-76 6371.38,-82 6371.38,-88"/>
<polyline fill="none" stroke="#666666" points="6371.38,-88 6371.38,-100 "/>
<path fill="none" stroke="#666666" d="M6371.38,-100C6371.38,-106 6365.38,-112 6359.38,-112"/>
<text text-anchor="middle" x="6276" y="-89.6" font-family="Helvetica,sans-Serif" font-size="11.00">prolog/web_prolog/toplevel_actors.pl</text>
</g>
<!-- n30 -->
<g id="node31" class="node"><title>n30</title>
<polyline fill="none" stroke="#666666" points="7094.08,-188 6885.92,-188 "/>
<path fill="none" stroke="#666666" d="M6885.92,-188C6879.92,-188 6873.92,-182 6873.92,-176"/>
<polyline fill="none" stroke="#666666" points="6873.92,-176 6873.92,-164 "/>
<path fill="none" stroke="#666666" d="M6873.92,-164C6873.92,-158 6879.92,-152 6885.92,-152"/>
<polyline fill="none" stroke="#666666" points="6885.92,-152 7094.08,-152 "/>
<path fill="none" stroke="#666666" d="M7094.08,-152C7100.08,-152 7106.08,-158 7106.08,-164"/>
<polyline fill="none" stroke="#666666" points="7106.08,-164 7106.08,-176 "/>
<path fill="none" stroke="#666666" d="M7106.08,-176C7106.08,-182 7100.08,-188 7094.08,-188"/>
<text text-anchor="middle" x="6990" y="-165.6" font-family="Helvetica,sans-Serif" font-size="11.00">prolog/web_prolog/wasm/statechart_wasm.pl</text>
</g>
<!-- n31 -->
<g id="node32" class="node"><title>n31</title>
<polyline fill="none" stroke="#666666" points="157.137,-264 30.8633,-264 "/>
<path fill="none" stroke="#666666" d="M30.8633,-264C24.8633,-264 18.8633,-258 18.8633,-252"/>
<polyline fill="none" stroke="#666666" points="18.8633,-252 18.8633,-240 "/>
<path fill="none" stroke="#666666" d="M18.8633,-240C18.8633,-234 24.8633,-228 30.8633,-228"/>
<polyline fill="none" stroke="#666666" points="30.8633,-228 157.137,-228 "/>
<path fill="none" stroke="#666666" d="M157.137,-228C163.137,-228 169.137,-234 169.137,-240"/>
<polyline fill="none" stroke="#666666" points="169.137,-240 169.137,-252 "/>
<path fill="none" stroke="#666666" d="M169.137,-252C169.137,-258 163.137,-264 157.137,-264"/>
<text text-anchor="middle" x="94" y="-241.6" font-family="Helvetica,sans-Serif" font-size="11.00">tests/discovery_hub_tests.pl</text>
</g>
<!-- n31&#45;&gt;n0 -->
<g id="edge2" class="edge"><title>n31&#45;&gt;n0</title>
<path fill="none" stroke="#555555" d="M94,-227.837C94,-218.124 94,-205.821 94,-195.147"/>
<polygon fill="#555555" stroke="#555555" points="96.4501,-195.07 94,-188.07 91.5501,-195.07 96.4501,-195.07"/>
</g>
<!-- n32 -->
<g id="node33" class="node"><title>n32</title>
<polyline fill="none" stroke="#666666" points="7056.17,-264 6923.83,-264 "/>
<path fill="none" stroke="#666666" d="M6923.83,-264C6917.83,-264 6911.83,-258 6911.83,-252"/>
<polyline fill="none" stroke="#666666" points="6911.83,-252 6911.83,-240 "/>
<path fill="none" stroke="#666666" d="M6911.83,-240C6911.83,-234 6917.83,-228 6923.83,-228"/>
<polyline fill="none" stroke="#666666" points="6923.83,-228 7056.17,-228 "/>
<path fill="none" stroke="#666666" d="M7056.17,-228C7062.17,-228 7068.17,-234 7068.17,-240"/>
<polyline fill="none" stroke="#666666" points="7068.17,-240 7068.17,-252 "/>
<path fill="none" stroke="#666666" d="M7068.17,-252C7068.17,-258 7062.17,-264 7056.17,-264"/>
<text text-anchor="middle" x="6990" y="-241.6" font-family="Helvetica,sans-Serif" font-size="11.00">tests/test_statechart_wasm.pl</text>
</g>
<!-- n32&#45;&gt;n30 -->
<g id="edge4" class="edge"><title>n32&#45;&gt;n30</title>
<path fill="none" stroke="#555555" d="M6990,-227.837C6990,-218.124 6990,-205.821 6990,-195.147"/>
<polygon fill="#555555" stroke="#555555" points="6992.45,-195.07 6990,-188.07 6987.55,-195.07 6992.45,-195.07"/>
</g>
<!-- n33 -->
<g id="node34" class="node"><title>n33</title>
<polyline fill="none" stroke="#666666" points="6138.57,-188 5967.43,-188 "/>
<path fill="none" stroke="#666666" d="M5967.43,-188C5961.43,-188 5955.43,-182 5955.43,-176"/>
<polyline fill="none" stroke="#666666" points="5955.43,-176 5955.43,-164 "/>
<path fill="none" stroke="#666666" d="M5955.43,-164C5955.43,-158 5961.43,-152 5967.43,-152"/>
<polyline fill="none" stroke="#666666" points="5967.43,-152 6138.57,-152 "/>
<path fill="none" stroke="#666666" d="M6138.57,-152C6144.57,-152 6150.57,-158 6150.57,-164"/>
<polyline fill="none" stroke="#666666" points="6150.57,-164 6150.57,-176 "/>
<path fill="none" stroke="#666666" d="M6150.57,-176C6150.57,-182 6144.57,-188 6138.57,-188"/>
<text text-anchor="middle" x="6053" y="-165.6" font-family="Helvetica,sans-Serif" font-size="11.00">tests/tiers/behaviours/parallel_tests.pl</text>
</g>
<!-- n33&#45;&gt;n2 -->
<g id="edge6" class="edge"><title>n33&#45;&gt;n2</title>
<path fill="none" stroke="#555555" d="M6150.36,-152.805C6215.68,-141.761 6303.61,-126.553 6381,-112 6382.05,-111.802 6383.11,-111.602 6384.17,-111.4"/>
<polygon fill="#555555" stroke="#555555" points="6384.86,-113.764 6391.27,-110.041 6383.93,-108.952 6384.86,-113.764"/>
</g>
<!-- n33&#45;&gt;n6 -->
<g id="edge8" class="edge"><title>n33&#45;&gt;n6</title>
<path fill="none" stroke="#555555" d="M5976.42,-151.93C5925.01,-140.472 5857.29,-125.379 5804.5,-113.612"/>
<polygon fill="#555555" stroke="#555555" points="5804.85,-111.18 5797.49,-112.048 5803.79,-115.962 5804.85,-111.18"/>
</g>
<!-- n33&#45;&gt;n22 -->
<g id="edge10" class="edge"><title>n33&#45;&gt;n22</title>
<path fill="none" stroke="#555555" d="M6060.19,-151.837C6064.34,-141.937 6069.61,-129.346 6074.14,-118.533"/>
<polygon fill="#555555" stroke="#555555" points="6076.4,-119.473 6076.85,-112.07 6071.88,-117.58 6076.4,-119.473"/>
</g>
<!-- n34 -->
<g id="node35" class="node"><title>n34</title>
<polyline fill="none" stroke="#666666" points="5603.32,-188 5406.68,-188 "/>
<path fill="none" stroke="#666666" d="M5406.68,-188C5400.68,-188 5394.68,-182 5394.68,-176"/>
<polyline fill="none" stroke="#666666" points="5394.68,-176 5394.68,-164 "/>
<path fill="none" stroke="#666666" d="M5394.68,-164C5394.68,-158 5400.68,-152 5406.68,-152"/>
<polyline fill="none" stroke="#666666" points="5406.68,-152 5603.32,-152 "/>
<path fill="none" stroke="#666666" d="M5603.32,-152C5609.32,-152 5615.32,-158 5615.32,-164"/>
<polyline fill="none" stroke="#666666" points="5615.32,-164 5615.32,-176 "/>
<path fill="none" stroke="#666666" d="M5615.32,-176C5615.32,-182 5609.32,-188 5603.32,-188"/>
<text text-anchor="middle" x="5505" y="-165.6" font-family="Helvetica,sans-Serif" font-size="11.00">tests/tiers/behaviours/server_actor_tests.pl</text>
</g>
<!-- n34&#45;&gt;n2 -->
<g id="edge12" class="edge"><title>n34&#45;&gt;n2</title>
<path fill="none" stroke="#555555" d="M5615.46,-152.979C5618.67,-152.633 5621.86,-152.305 5625,-152 5959.89,-119.482 6047.21,-154.374 6381,-112 6382.06,-111.865 6383.13,-111.725 6384.2,-111.579"/>
<polygon fill="#555555" stroke="#555555" points="6384.77,-113.972 6391.35,-110.542 6384.07,-109.122 6384.77,-113.972"/>
</g>
<!-- n34&#45;&gt;n26 -->
<g id="edge14" class="edge"><title>n34&#45;&gt;n26</title>
<path fill="none" stroke="#555555" d="M5394.59,-153.122C5391.02,-152.726 5387.48,-152.35 5384,-152 5093.37,-122.769 5018.12,-145.903 4728,-112 4727.11,-111.896 4726.21,-111.789 4725.31,-111.679"/>
<polygon fill="#555555" stroke="#555555" points="4725.6,-109.246 4718.35,-110.789 4724.98,-114.107 4725.6,-109.246"/>
</g>
<!-- n35 -->
<g id="node36" class="node"><title>n35</title>
<polyline fill="none" stroke="#666666" points="5362.12,-188 5147.88,-188 "/>
<path fill="none" stroke="#666666" d="M5147.88,-188C5141.88,-188 5135.88,-182 5135.88,-176"/>
<polyline fill="none" stroke="#666666" points="5135.88,-176 5135.88,-164 "/>
<path fill="none" stroke="#666666" d="M5135.88,-164C5135.88,-158 5141.88,-152 5147.88,-152"/>
<polyline fill="none" stroke="#666666" points="5147.88,-152 5362.12,-152 "/>
<path fill="none" stroke="#666666" d="M5362.12,-152C5368.12,-152 5374.12,-158 5374.12,-164"/>
<polyline fill="none" stroke="#666666" points="5374.12,-164 5374.12,-176 "/>
<path fill="none" stroke="#666666" d="M5374.12,-176C5374.12,-182 5368.12,-188 5362.12,-188"/>
<text text-anchor="middle" x="5255" y="-165.6" font-family="Helvetica,sans-Serif" font-size="11.00">tests/tiers/behaviours/statechart_actor_tests.pl</text>
</g>
<!-- n35&#45;&gt;n2 -->
<g id="edge16" class="edge"><title>n35&#45;&gt;n2</title>
<path fill="none" stroke="#555555" d="M5374.44,-152.872C5377.66,-152.562 5380.85,-152.27 5384,-152 5825.85,-114.102 5940.72,-165.041 6381,-112 6382.06,-111.872 6383.13,-111.738 6384.2,-111.598"/>
<polygon fill="#555555" stroke="#555555" points="6384.76,-113.994 6391.36,-110.596 6384.08,-109.141 6384.76,-113.994"/>
</g>
<!-- n35&#45;&gt;n3 -->
<g id="edge18" class="edge"><title>n35&#45;&gt;n3</title>
<path fill="none" stroke="#555555" d="M5257.78,-151.837C5259.36,-142.124 5261.35,-129.821 5263.08,-119.147"/>
<polygon fill="#555555" stroke="#555555" points="5265.53,-119.372 5264.23,-112.07 5260.69,-118.588 5265.53,-119.372"/>
</g>
<!-- n35&#45;&gt;n27 -->
<g id="edge20" class="edge"><title>n35&#45;&gt;n27</title>
<path fill="none" stroke="#555555" d="M5135.58,-162.445C4991.82,-153.897 4743.24,-137.021 4531,-112 4529.8,-111.859 4528.6,-111.714 4527.38,-111.566"/>
<polygon fill="#555555" stroke="#555555" points="4527.64,-109.128 4520.38,-110.685 4527.02,-113.99 4527.64,-109.128"/>
</g>
<!-- n35&#45;&gt;n29 -->
<g id="edge22" class="edge"><title>n35&#45;&gt;n29</title>
<path fill="none" stroke="#555555" d="M5374.44,-152.917C5377.66,-152.594 5380.85,-152.287 5384,-152 5732.34,-120.235 5822.14,-148.637 6170,-112 6171.07,-111.887 6172.15,-111.771 6173.23,-111.651"/>
<polygon fill="#555555" stroke="#555555" points="6173.76,-114.056 6180.43,-110.814 6173.2,-109.188 6173.76,-114.056"/>
</g>
<!-- n36 -->
<g id="node37" class="node"><title>n36</title>
<polyline fill="none" stroke="#666666" points="4921.45,-188 4704.55,-188 "/>
<path fill="none" stroke="#666666" d="M4704.55,-188C4698.55,-188 4692.55,-182 4692.55,-176"/>
<polyline fill="none" stroke="#666666" points="4692.55,-176 4692.55,-164 "/>
<path fill="none" stroke="#666666" d="M4692.55,-164C4692.55,-158 4698.55,-152 4704.55,-152"/>
<polyline fill="none" stroke="#666666" points="4704.55,-152 4921.45,-152 "/>
<path fill="none" stroke="#666666" d="M4921.45,-152C4927.45,-152 4933.45,-158 4933.45,-164"/>
<polyline fill="none" stroke="#666666" points="4933.45,-164 4933.45,-176 "/>
<path fill="none" stroke="#666666" d="M4933.45,-176C4933.45,-182 4927.45,-188 4921.45,-188"/>
<text text-anchor="middle" x="4813" y="-165.6" font-family="Helvetica,sans-Serif" font-size="11.00">tests/tiers/behaviours/supervisor_actor_tests.pl</text>
</g>
<!-- n36&#45;&gt;n2 -->
<g id="edge24" class="edge"><title>n36&#45;&gt;n2</title>
<path fill="none" stroke="#555555" d="M4933.36,-161.831C4991.54,-158.527 5062.39,-154.741 5126,-152 5683.54,-127.977 5826.67,-176.464 6381,-112 6382.06,-111.876 6383.13,-111.746 6384.21,-111.61"/>
<polygon fill="#555555" stroke="#555555" points="6384.76,-114.008 6391.36,-110.631 6384.09,-109.153 6384.76,-114.008"/>
</g>
<!-- n36&#45;&gt;n26 -->
<g id="edge26" class="edge"><title>n36&#45;&gt;n26</title>
<path fill="none" stroke="#555555" d="M4770.56,-151.837C4743.19,-140.769 4707.5,-126.34 4678.94,-114.789"/>
<polygon fill="#555555" stroke="#555555" points="4679.62,-112.423 4672.21,-112.07 4677.78,-116.966 4679.62,-112.423"/>
</g>
<!-- n36&#45;&gt;n28 -->
<g id="edge28" class="edge"><title>n36&#45;&gt;n28</title>
<path fill="none" stroke="#555555" d="M4692.58,-156.606C4591.61,-145.882 4443.71,-129.396 4315,-112 4313.93,-111.856 4312.86,-111.71 4311.78,-111.562"/>
<polygon fill="#555555" stroke="#555555" points="4311.87,-109.101 4304.6,-110.562 4311.2,-113.954 4311.87,-109.101"/>
</g>
<!-- n37 -->
<g id="node38" class="node"><title>n37</title>
<polyline fill="none" stroke="#666666" points="5820.45,-188 5647.55,-188 "/>
<path fill="none" stroke="#666666" d="M5647.55,-188C5641.55,-188 5635.55,-182 5635.55,-176"/>
<polyline fill="none" stroke="#666666" points="5635.55,-176 5635.55,-164 "/>
<path fill="none" stroke="#666666" d="M5635.55,-164C5635.55,-158 5641.55,-152 5647.55,-152"/>
<polyline fill="none" stroke="#666666" points="5647.55,-152 5820.45,-152 "/>
<path fill="none" stroke="#666666" d="M5820.45,-152C5826.45,-152 5832.45,-158 5832.45,-164"/>
<polyline fill="none" stroke="#666666" points="5832.45,-164 5832.45,-176 "/>
<path fill="none" stroke="#666666" d="M5832.45,-176C5832.45,-182 5826.45,-188 5820.45,-188"/>
<text text-anchor="middle" x="5734" y="-165.6" font-family="Helvetica,sans-Serif" font-size="11.00">tests/tiers/node/generic_actor_tests.pl</text>
</g>
<!-- n37&#45;&gt;n6 -->
<g id="edge30" class="edge"><title>n37&#45;&gt;n6</title>
<path fill="none" stroke="#555555" d="M5730.98,-151.837C5729.28,-142.124 5727.12,-129.821 5725.24,-119.147"/>
<polygon fill="#555555" stroke="#555555" points="5727.62,-118.54 5724,-112.07 5722.8,-119.388 5727.62,-118.54"/>
</g>
<!-- n37&#45;&gt;n8 -->
<g id="edge32" class="edge"><title>n37&#45;&gt;n8</title>
<path fill="none" stroke="#555555" d="M5832.47,-160.776C5867.93,-157.891 5908.26,-154.699 5945,-152 6212.87,-132.326 6281.59,-146.149 6548,-112 6549.07,-111.862 6550.15,-111.72 6551.24,-111.573"/>
<polygon fill="#555555" stroke="#555555" points="6551.88,-113.956 6558.46,-110.542 6551.19,-109.106 6551.88,-113.956"/>
</g>
<!-- n37&#45;&gt;n13 -->
<g id="edge34" class="edge"><title>n37&#45;&gt;n13</title>
<path fill="none" stroke="#555555" d="M5678.41,-151.93C5641.76,-140.679 5593.71,-125.923 5555.7,-114.254"/>
<polygon fill="#555555" stroke="#555555" points="5556.14,-111.825 5548.73,-112.112 5554.7,-116.509 5556.14,-111.825"/>
</g>
<!-- n37&#45;&gt;n15 -->
<g id="edge36" class="edge"><title>n37&#45;&gt;n15</title>
<path fill="none" stroke="#555555" d="M5635.43,-153.198C5631.91,-152.771 5628.43,-152.369 5625,-152 5330.17,-120.228 5253.95,-142.6 4959,-112 4958.22,-111.919 4957.44,-111.837 4956.66,-111.754"/>
<polygon fill="#555555" stroke="#555555" points="4956.78,-109.302 4949.55,-110.966 4956.24,-114.172 4956.78,-109.302"/>
</g>
<!-- n37&#45;&gt;n19 -->
<g id="edge38" class="edge"><title>n37&#45;&gt;n19</title>
<path fill="none" stroke="#555555" d="M5635.41,-153.32C5631.9,-152.858 5628.42,-152.416 5625,-152 5423.05,-127.422 5370.88,-137.163 5169,-112 5167.8,-111.851 5166.6,-111.698 5165.39,-111.542"/>
<polygon fill="#555555" stroke="#555555" points="5165.66,-109.107 5158.4,-110.617 5165.02,-113.965 5165.66,-109.107"/>
</g>
<!-- n37&#45;&gt;n22 -->
<g id="edge40" class="edge"><title>n37&#45;&gt;n22</title>
<path fill="none" stroke="#555555" d="M5814.74,-151.93C5870.49,-140.141 5944.45,-124.505 6000.74,-112.603"/>
<polygon fill="#555555" stroke="#555555" points="6001.52,-114.942 6007.87,-111.097 6000.51,-110.148 6001.52,-114.942"/>
</g>
<!-- n38 -->
<g id="node39" class="node"><title>n38</title>
<polyline fill="none" stroke="#666666" points="1085.49,-188 920.513,-188 "/>
<path fill="none" stroke="#666666" d="M920.513,-188C914.513,-188 908.513,-182 908.513,-176"/>
<polyline fill="none" stroke="#666666" points="908.513,-176 908.513,-164 "/>
<path fill="none" stroke="#666666" d="M908.513,-164C908.513,-158 914.513,-152 920.513,-152"/>
<polyline fill="none" stroke="#666666" points="920.513,-152 1085.49,-152 "/>
<path fill="none" stroke="#666666" d="M1085.49,-152C1091.49,-152 1097.49,-158 1097.49,-164"/>
<polyline fill="none" stroke="#666666" points="1097.49,-164 1097.49,-176 "/>
<path fill="none" stroke="#666666" d="M1097.49,-176C1097.49,-182 1091.49,-188 1085.49,-188"/>
<text text-anchor="middle" x="1003" y="-165.6" font-family="Helvetica,sans-Serif" font-size="11.00">tests/tiers/node/goal_walker_tests.pl</text>
</g>
<!-- n38&#45;&gt;n7 -->
<g id="edge42" class="edge"><title>n38&#45;&gt;n7</title>
<path fill="none" stroke="#555555" d="M1001.38,-151.837C1000.46,-142.124 999.294,-129.821 998.284,-119.147"/>
<polygon fill="#555555" stroke="#555555" points="1000.71,-118.808 997.615,-112.07 995.835,-119.27 1000.71,-118.808"/>
</g>
<!-- n39 -->
<g id="node40" class="node"><title>n39</title>
<polyline fill="none" stroke="#666666" points="2880.25,-112 2703.75,-112 "/>
<path fill="none" stroke="#666666" d="M2703.75,-112C2697.75,-112 2691.75,-106 2691.75,-100"/>
<polyline fill="none" stroke="#666666" points="2691.75,-100 2691.75,-88 "/>
<path fill="none" stroke="#666666" d="M2691.75,-88C2691.75,-82 2697.75,-76 2703.75,-76"/>
<polyline fill="none" stroke="#666666" points="2703.75,-76 2880.25,-76 "/>
<path fill="none" stroke="#666666" d="M2880.25,-76C2886.25,-76 2892.25,-82 2892.25,-88"/>
<polyline fill="none" stroke="#666666" points="2892.25,-88 2892.25,-100 "/>
<path fill="none" stroke="#666666" d="M2892.25,-100C2892.25,-106 2886.25,-112 2880.25,-112"/>
<text text-anchor="middle" x="2792" y="-89.6" font-family="Helvetica,sans-Serif" font-size="11.00">tests/tiers/node/multi_node_harness.pl</text>
</g>
<!-- n39&#45;&gt;n1 -->
<g id="edge44" class="edge"><title>n39&#45;&gt;n1</title>
<path fill="none" stroke="#555555" d="M2892.09,-76.577C2970.65,-63.6865 3078.99,-45.9103 3154.43,-33.5326"/>
<polygon fill="#555555" stroke="#555555" points="3155.11,-35.9031 3161.63,-32.352 3154.32,-31.0678 3155.11,-35.9031"/>
</g>
<!-- n39&#45;&gt;n9 -->
<g id="edge46" class="edge"><title>n39&#45;&gt;n9</title>
<path fill="none" stroke="#555555" d="M2792,-75.8369C2792,-66.1236 2792,-53.8206 2792,-43.1472"/>
<polygon fill="#555555" stroke="#555555" points="2794.45,-43.07 2792,-36.07 2789.55,-43.07 2794.45,-43.07"/>
</g>
<!-- n40 -->
<g id="node41" class="node"><title>n40</title>
<polyline fill="none" stroke="#666666" points="3339.59,-112 3146.41,-112 "/>
<path fill="none" stroke="#666666" d="M3146.41,-112C3140.41,-112 3134.41,-106 3134.41,-100"/>
<polyline fill="none" stroke="#666666" points="3134.41,-100 3134.41,-88 "/>
<path fill="none" stroke="#666666" d="M3134.41,-88C3134.41,-82 3140.41,-76 3146.41,-76"/>
<polyline fill="none" stroke="#666666" points="3146.41,-76 3339.59,-76 "/>
<path fill="none" stroke="#666666" d="M3339.59,-76C3345.59,-76 3351.59,-82 3351.59,-88"/>
<polyline fill="none" stroke="#666666" points="3351.59,-88 3351.59,-100 "/>
<path fill="none" stroke="#666666" d="M3351.59,-100C3351.59,-106 3345.59,-112 3339.59,-112"/>
<text text-anchor="middle" x="3243" y="-89.6" font-family="Helvetica,sans-Serif" font-size="11.00">tests/tiers/node/node_resident_services.pl</text>
</g>
<!-- n40&#45;&gt;n1 -->
<g id="edge48" class="edge"><title>n40&#45;&gt;n1</title>
<path fill="none" stroke="#555555" d="M3243,-75.8369C3243,-66.1236 3243,-53.8206 3243,-43.1472"/>
<polygon fill="#555555" stroke="#555555" points="3245.45,-43.07 3243,-36.07 3240.55,-43.07 3245.45,-43.07"/>
</g>
<!-- n40&#45;&gt;n9 -->
<g id="edge50" class="edge"><title>n40&#45;&gt;n9</title>
<path fill="none" stroke="#555555" d="M3139.25,-75.9765C3056.98,-62.4778 2943.83,-43.9129 2869.36,-31.6929"/>
<polygon fill="#555555" stroke="#555555" points="2869.58,-29.2463 2862.27,-30.5305 2868.78,-34.0816 2869.58,-29.2463"/>
</g>
<!-- n41 -->
<g id="node42" class="node"><title>n41</title>
<polyline fill="none" stroke="#666666" points="3428.31,-188 3297.69,-188 "/>
<path fill="none" stroke="#666666" d="M3297.69,-188C3291.69,-188 3285.69,-182 3285.69,-176"/>
<polyline fill="none" stroke="#666666" points="3285.69,-176 3285.69,-164 "/>
<path fill="none" stroke="#666666" d="M3285.69,-164C3285.69,-158 3291.69,-152 3297.69,-152"/>
<polyline fill="none" stroke="#666666" points="3297.69,-152 3428.31,-152 "/>
<path fill="none" stroke="#666666" d="M3428.31,-152C3434.31,-152 3440.31,-158 3440.31,-164"/>
<polyline fill="none" stroke="#666666" points="3440.31,-164 3440.31,-176 "/>
<path fill="none" stroke="#666666" d="M3440.31,-176C3440.31,-182 3434.31,-188 3428.31,-188"/>
<text text-anchor="middle" x="3363" y="-165.6" font-family="Helvetica,sans-Serif" font-size="11.00">tests/tiers/node/node_tests.pl</text>
</g>
<!-- n41&#45;&gt;n1 -->
<g id="edge52" class="edge"><title>n41&#45;&gt;n1</title>
<path fill="none" stroke="#555555" d="M3440.59,-168.383C3612.41,-166.209 4013.13,-156.384 4054,-112 4064.84,-100.23 4064.91,-87.7036 4054,-76 4005.55,-24.026 3531.56,-18.5489 3331.44,-18.5785"/>
<polygon fill="#555555" stroke="#555555" points="3331.43,-16.1284 3324.44,-18.5818 3331.44,-21.0284 3331.43,-16.1284"/>
</g>
<!-- n41&#45;&gt;n5 -->
<g id="edge54" class="edge"><title>n41&#45;&gt;n5</title>
<path fill="none" stroke="#555555" d="M3285.65,-167.675C3106.11,-164.012 2647.31,-151.269 2266,-112 2265.21,-111.918 2264.41,-111.835 2263.61,-111.75"/>
<polygon fill="#555555" stroke="#555555" points="2263.59,-109.282 2256.36,-110.94 2263.04,-114.152 2263.59,-109.282"/>
</g>
<!-- n41&#45;&gt;n7 -->
<g id="edge56" class="edge"><title>n41&#45;&gt;n7</title>
<path fill="none" stroke="#555555" d="M3285.69,-168.492C2940.41,-166.001 1537.16,-153.473 1099,-112 1096.32,-111.746 1093.6,-111.464 1090.85,-111.158"/>
<polygon fill="#555555" stroke="#555555" points="1090.79,-108.684 1083.55,-110.296 1090.22,-113.55 1090.79,-108.684"/>
</g>
<!-- n41&#45;&gt;n9 -->
<g id="edge58" class="edge"><title>n41&#45;&gt;n9</title>
<path fill="none" stroke="#555555" d="M3285.54,-168.486C2896.65,-165.728 1174.31,-151.304 1136,-112 1124.83,-100.542 1124.88,-87.5067 1136,-76 1191.42,-18.6377 2394.07,-17.8869 2714.27,-18.7092"/>
<polygon fill="#555555" stroke="#555555" points="2714.66,-21.1601 2721.67,-18.7289 2714.67,-16.2602 2714.66,-21.1601"/>
</g>
<!-- n41&#45;&gt;n10 -->
<g id="edge60" class="edge"><title>n41&#45;&gt;n10</title>
<path fill="none" stroke="#555555" d="M3285.68,-167.12C3128.76,-162.648 2761.85,-148.853 2456,-112 2454.8,-111.855 2453.59,-111.705 2452.38,-111.55"/>
<polygon fill="#555555" stroke="#555555" points="2452.62,-109.111 2445.36,-110.611 2451.97,-113.968 2452.62,-109.111"/>
</g>
<!-- n41&#45;&gt;n11 -->
<g id="edge62" class="edge"><title>n41&#45;&gt;n11</title>
<path fill="none" stroke="#555555" d="M3285.73,-164.195C3159.26,-155.958 2900.3,-137.528 2682,-112 2680.92,-111.874 2679.84,-111.746 2678.75,-111.615"/>
<polygon fill="#555555" stroke="#555555" points="2678.76,-109.147 2671.51,-110.723 2678.16,-114.01 2678.76,-109.147"/>
</g>
<!-- n41&#45;&gt;n12 -->
<g id="edge64" class="edge"><title>n41&#45;&gt;n12</title>
<path fill="none" stroke="#555555" d="M3285.32,-152.577C3230.67,-141.021 3157.44,-125.539 3100.69,-113.539"/>
<polygon fill="#555555" stroke="#555555" points="3100.85,-111.07 3093.5,-112.019 3099.84,-115.864 3100.85,-111.07"/>
</g>
<!-- n41&#45;&gt;n13 -->
<g id="edge66" class="edge"><title>n41&#45;&gt;n13</title>
<path fill="none" stroke="#555555" d="M3440.51,-167.857C3760.52,-162.971 4980,-142.69 5364,-112 5365.2,-111.904 5366.41,-111.805 5367.62,-111.702"/>
<polygon fill="#555555" stroke="#555555" points="5367.85,-114.142 5374.6,-111.082 5367.41,-109.261 5367.85,-114.142"/>
</g>
<!-- n41&#45;&gt;n14 -->
<g id="edge68" class="edge"><title>n41&#45;&gt;n14</title>
<path fill="none" stroke="#555555" d="M3390.83,-151.837C3408.25,-141.096 3430.8,-127.189 3449.24,-115.82"/>
<polygon fill="#555555" stroke="#555555" points="3450.65,-117.83 3455.32,-112.07 3448.07,-113.659 3450.65,-117.83"/>
</g>
<!-- n41&#45;&gt;n15 -->
<g id="edge70" class="edge"><title>n41&#45;&gt;n15</title>
<path fill="none" stroke="#555555" d="M3440.53,-168.576C3649.12,-166.828 4239.47,-157.873 4728,-112 4729.08,-111.899 4730.16,-111.795 4731.24,-111.688"/>
<polygon fill="#555555" stroke="#555555" points="4731.76,-114.097 4738.47,-110.939 4731.26,-109.223 4731.76,-114.097"/>
</g>
<!-- n41&#45;&gt;n16 -->
<g id="edge72" class="edge"><title>n41&#45;&gt;n16</title>
<path fill="none" stroke="#555555" d="M3440.67,-153.034C3497.18,-141.418 3573.84,-125.661 3633.02,-113.497"/>
<polygon fill="#555555" stroke="#555555" points="3633.78,-115.841 3640.14,-112.032 3632.79,-111.041 3633.78,-115.841"/>
</g>
<!-- n41&#45;&gt;n17 -->
<g id="edge74" class="edge"><title>n41&#45;&gt;n17</title>
<path fill="none" stroke="#555555" d="M3440.53,-160.692C3535.18,-150.334 3700.07,-131.591 3841,-112 3842.08,-111.85 3843.16,-111.699 3844.25,-111.545"/>
<polygon fill="#555555" stroke="#555555" points="3844.91,-113.925 3851.49,-110.509 3844.22,-109.075 3844.91,-113.925"/>
</g>
<!-- n41&#45;&gt;n18 -->
<g id="edge76" class="edge"><title>n41&#45;&gt;n18</title>
<path fill="none" stroke="#555555" d="M3285.52,-167.984C2966.33,-163.613 1752.14,-145.115 1370,-112 1369.21,-111.931 1368.41,-111.861 1367.61,-111.789"/>
<polygon fill="#555555" stroke="#555555" points="1367.58,-109.324 1360.37,-111.093 1367.11,-114.201 1367.58,-109.324"/>
</g>
<!-- n41&#45;&gt;n19 -->
<g id="edge78" class="edge"><title>n41&#45;&gt;n19</title>
<path fill="none" stroke="#555555" d="M3440.46,-169.651C3671.77,-170.863 4377.48,-169.234 4959,-112 4960.2,-111.882 4961.41,-111.759 4962.62,-111.631"/>
<polygon fill="#555555" stroke="#555555" points="4962.94,-114.06 4969.63,-110.849 4962.4,-109.19 4962.94,-114.06"/>
</g>
<!-- n41&#45;&gt;n20 -->
<g id="edge80" class="edge"><title>n41&#45;&gt;n20</title>
<path fill="none" stroke="#555555" d="M3285.56,-167.889C2987.65,-163.404 1915.23,-145.259 1576,-112 1574.79,-111.881 1573.57,-111.757 1572.35,-111.628"/>
<polygon fill="#555555" stroke="#555555" points="1572.52,-109.182 1565.29,-110.836 1571.98,-114.052 1572.52,-109.182"/>
</g>
<!-- n41&#45;&gt;n21 -->
<g id="edge82" class="edge"><title>n41&#45;&gt;n21</title>
<path fill="none" stroke="#555555" d="M3285.66,-168.951C3059.43,-168.205 2379.47,-161.667 1818,-112 1817.21,-111.93 1816.41,-111.858 1815.61,-111.785"/>
<polygon fill="#555555" stroke="#555555" points="1815.58,-109.32 1808.38,-111.086 1815.11,-114.198 1815.58,-109.32"/>
</g>
<!-- n41&#45;&gt;n23 -->
<g id="edge84" class="edge"><title>n41&#45;&gt;n23</title>
<path fill="none" stroke="#555555" d="M3440.53,-167.966C3831.66,-162.647 5579.09,-137.625 5820,-112 5821.08,-111.886 5822.16,-111.765 5823.24,-111.639"/>
<polygon fill="#555555" stroke="#555555" points="5823.85,-114.033 5830.48,-110.727 5823.23,-109.171 5823.85,-114.033"/>
</g>
<!-- n41&#45;&gt;n24 -->
<g id="edge86" class="edge"><title>n41&#45;&gt;n24</title>
<path fill="none" stroke="#555555" d="M3285.61,-168.479C3082.11,-166.496 2515.3,-157.022 2046,-112 2044.8,-111.885 2043.6,-111.766 2042.39,-111.643"/>
<polygon fill="#555555" stroke="#555555" points="2042.62,-109.204 2035.4,-110.902 2042.1,-114.077 2042.62,-109.204"/>
</g>
<!-- n41&#45;&gt;n26 -->
<g id="edge88" class="edge"><title>n41&#45;&gt;n26</title>
<path fill="none" stroke="#555555" d="M3440.4,-168.413C3627.91,-166.297 4121.15,-156.575 4530,-112 4531.41,-111.846 4532.83,-111.685 4534.26,-111.517"/>
<polygon fill="#555555" stroke="#555555" points="4534.83,-113.917 4541.47,-110.627 4534.22,-109.054 4534.83,-113.917"/>
</g>
<!-- n41&#45;&gt;n27 -->
<g id="edge90" class="edge"><title>n41&#45;&gt;n27</title>
<path fill="none" stroke="#555555" d="M3440.56,-166.844C3602.99,-161.78 3990.65,-146.826 4314,-112 4315.43,-111.846 4316.87,-111.687 4318.31,-111.522"/>
<polygon fill="#555555" stroke="#555555" points="4318.94,-113.915 4325.6,-110.659 4318.36,-109.049 4318.94,-113.915"/>
</g>
<!-- n41&#45;&gt;n28 -->
<g id="edge92" class="edge"><title>n41&#45;&gt;n28</title>
<path fill="none" stroke="#555555" d="M3440.32,-164.738C3573.61,-156.993 3855.17,-138.883 4092,-112 4094.69,-111.694 4097.42,-111.373 4100.17,-111.039"/>
<polygon fill="#555555" stroke="#555555" points="4100.86,-113.423 4107.5,-110.128 4100.25,-108.561 4100.86,-113.423"/>
</g>
<!-- n41&#45;&gt;n29 -->
<g id="edge94" class="edge"><title>n41&#45;&gt;n29</title>
<path fill="none" stroke="#555555" d="M3440.46,-168.07C3864.14,-162.895 5891.99,-136.994 6170,-112 6171.07,-111.904 6172.15,-111.803 6173.24,-111.698"/>
<polygon fill="#555555" stroke="#555555" points="6173.74,-114.109 6180.45,-110.949 6173.23,-109.235 6173.74,-114.109"/>
</g>
<!-- n41&#45;&gt;n40 -->
<g id="edge96" class="edge"><title>n41&#45;&gt;n40</title>
<path fill="none" stroke="#555555" d="M3335.17,-151.837C3317.75,-141.096 3295.2,-127.189 3276.76,-115.82"/>
<polygon fill="#555555" stroke="#555555" points="3277.93,-113.659 3270.68,-112.07 3275.35,-117.83 3277.93,-113.659"/>
</g>
<!-- n42 -->
<g id="node43" class="node"><title>n42</title>
<polyline fill="none" stroke="#666666" points="6508.24,-188 6413.76,-188 "/>
<path fill="none" stroke="#666666" d="M6413.76,-188C6407.76,-188 6401.76,-182 6401.76,-176"/>
<polyline fill="none" stroke="#666666" points="6401.76,-176 6401.76,-164 "/>
<path fill="none" stroke="#666666" d="M6401.76,-164C6401.76,-158 6407.76,-152 6413.76,-152"/>
<polyline fill="none" stroke="#666666" points="6413.76,-152 6508.24,-152 "/>
<path fill="none" stroke="#666666" d="M6508.24,-152C6514.24,-152 6520.24,-158 6520.24,-164"/>
<polyline fill="none" stroke="#666666" points="6520.24,-164 6520.24,-176 "/>
<path fill="none" stroke="#666666" d="M6520.24,-176C6520.24,-182 6514.24,-188 6508.24,-188"/>
<text text-anchor="middle" x="6461" y="-165.6" font-family="Helvetica,sans-Serif" font-size="11.00">tests/tiers/t0_actors.pl</text>
</g>
<!-- n42&#45;&gt;n2 -->
<g id="edge98" class="edge"><title>n42&#45;&gt;n2</title>
<path fill="none" stroke="#555555" d="M6461.93,-151.837C6462.45,-142.124 6463.12,-129.821 6463.69,-119.147"/>
<polygon fill="#555555" stroke="#555555" points="6466.15,-119.192 6464.08,-112.07 6461.25,-118.928 6466.15,-119.192"/>
</g>
<!-- n43 -->
<g id="node44" class="node"><title>n43</title>
<polyline fill="none" stroke="#666666" points="6657.54,-188 6552.46,-188 "/>
<path fill="none" stroke="#666666" d="M6552.46,-188C6546.46,-188 6540.46,-182 6540.46,-176"/>
<polyline fill="none" stroke="#666666" points="6540.46,-176 6540.46,-164 "/>
<path fill="none" stroke="#666666" d="M6540.46,-164C6540.46,-158 6546.46,-152 6552.46,-152"/>
<polyline fill="none" stroke="#666666" points="6552.46,-152 6657.54,-152 "/>
<path fill="none" stroke="#666666" d="M6657.54,-152C6663.54,-152 6669.54,-158 6669.54,-164"/>
<polyline fill="none" stroke="#666666" points="6669.54,-164 6669.54,-176 "/>
<path fill="none" stroke="#666666" d="M6669.54,-176C6669.54,-182 6663.54,-188 6657.54,-188"/>
<text text-anchor="middle" x="6605" y="-165.6" font-family="Helvetica,sans-Serif" font-size="11.00">tests/tiers/t1_isolation.pl</text>
</g>
<!-- n43&#45;&gt;n2 -->
<g id="edge100" class="edge"><title>n43&#45;&gt;n2</title>
<path fill="none" stroke="#555555" d="M6572.53,-151.837C6551.94,-140.956 6525.21,-126.826 6503.55,-115.376"/>
<polygon fill="#555555" stroke="#555555" points="6504.63,-113.175 6497.29,-112.07 6502.34,-117.507 6504.63,-113.175"/>
</g>
<!-- n43&#45;&gt;n8 -->
<g id="edge102" class="edge"><title>n43&#45;&gt;n8</title>
<path fill="none" stroke="#555555" d="M6612.42,-151.837C6616.7,-141.937 6622.15,-129.346 6626.82,-118.533"/>
<polygon fill="#555555" stroke="#555555" points="6629.09,-119.467 6629.62,-112.07 6624.59,-117.523 6629.09,-119.467"/>
</g>
<!-- n44 -->
<g id="node45" class="node"><title>n44</title>
<polyline fill="none" stroke="#666666" points="6369.21,-188 6266.79,-188 "/>
<path fill="none" stroke="#666666" d="M6266.79,-188C6260.79,-188 6254.79,-182 6254.79,-176"/>
<polyline fill="none" stroke="#666666" points="6254.79,-176 6254.79,-164 "/>
<path fill="none" stroke="#666666" d="M6254.79,-164C6254.79,-158 6260.79,-152 6266.79,-152"/>
<polyline fill="none" stroke="#666666" points="6266.79,-152 6369.21,-152 "/>
<path fill="none" stroke="#666666" d="M6369.21,-152C6375.21,-152 6381.21,-158 6381.21,-164"/>
<polyline fill="none" stroke="#666666" points="6381.21,-164 6381.21,-176 "/>
<path fill="none" stroke="#666666" d="M6381.21,-176C6381.21,-182 6375.21,-188 6369.21,-188"/>
<text text-anchor="middle" x="6318" y="-165.6" font-family="Helvetica,sans-Serif" font-size="11.00">tests/tiers/t2_toplevel.pl</text>
</g>
<!-- n44&#45;&gt;n2 -->
<g id="edge104" class="edge"><title>n44&#45;&gt;n2</title>
<path fill="none" stroke="#555555" d="M6352.09,-151.837C6373.8,-140.909 6402.02,-126.704 6424.81,-115.229"/>
<polygon fill="#555555" stroke="#555555" points="6425.94,-117.406 6431.09,-112.07 6423.74,-113.029 6425.94,-117.406"/>
</g>
<!-- n44&#45;&gt;n8 -->
<g id="edge106" class="edge"><title>n44&#45;&gt;n8</title>
<path fill="none" stroke="#555555" d="M6381.41,-154.292C6431.76,-142.61 6502.49,-126.202 6556.79,-113.607"/>
<polygon fill="#555555" stroke="#555555" points="6557.4,-115.981 6563.66,-112.013 6556.29,-111.208 6557.4,-115.981"/>
</g>
<!-- n44&#45;&gt;n29 -->
<g id="edge108" class="edge"><title>n44&#45;&gt;n29</title>
<path fill="none" stroke="#555555" d="M6308.26,-151.837C6302.59,-141.843 6295.36,-129.109 6289.18,-118.228"/>
<polygon fill="#555555" stroke="#555555" points="6291.27,-116.948 6285.69,-112.07 6287.01,-119.367 6291.27,-116.948"/>
</g>
<!-- n45 -->
<g id="node46" class="node"><title>n45</title>
<polyline fill="none" stroke="#666666" points="6262.13,-264 6143.87,-264 "/>
<path fill="none" stroke="#666666" d="M6143.87,-264C6137.87,-264 6131.87,-258 6131.87,-252"/>
<polyline fill="none" stroke="#666666" points="6131.87,-252 6131.87,-240 "/>
<path fill="none" stroke="#666666" d="M6131.87,-240C6131.87,-234 6137.87,-228 6143.87,-228"/>
<polyline fill="none" stroke="#666666" points="6143.87,-228 6262.13,-228 "/>
<path fill="none" stroke="#666666" d="M6262.13,-228C6268.13,-228 6274.13,-234 6274.13,-240"/>
<polyline fill="none" stroke="#666666" points="6274.13,-240 6274.13,-252 "/>
<path fill="none" stroke="#666666" d="M6274.13,-252C6274.13,-258 6268.13,-264 6262.13,-264"/>
<text text-anchor="middle" x="6203" y="-241.6" font-family="Helvetica,sans-Serif" font-size="11.00">tests/tiers/t3_behaviours.pl</text>
</g>
<!-- n45&#45;&gt;n2 -->
<g id="edge110" class="edge"><title>n45&#45;&gt;n2</title>
<path fill="none" stroke="#555555" d="M6206.07,-227.873C6210.75,-206.865 6221.7,-171.632 6245,-152 6256.04,-142.703 6326.31,-125.415 6384.51,-112.307"/>
<polygon fill="#555555" stroke="#555555" points="6385.25,-114.653 6391.55,-110.73 6384.18,-109.871 6385.25,-114.653"/>
</g>
<!-- n45&#45;&gt;n8 -->
<g id="edge112" class="edge"><title>n45&#45;&gt;n8</title>
<path fill="none" stroke="#555555" d="M6274.26,-243.721C6429.18,-240.201 6785.68,-227.817 6822,-188 6858.76,-147.704 6786.96,-122.506 6722.38,-108.664"/>
<polygon fill="#555555" stroke="#555555" points="6722.7,-106.229 6715.35,-107.195 6721.7,-111.026 6722.7,-106.229"/>
</g>
<!-- n45&#45;&gt;n29 -->
<g id="edge114" class="edge"><title>n45&#45;&gt;n29</title>
<path fill="none" stroke="#555555" d="M6200.02,-227.853C6197.48,-208.371 6195.93,-176.154 6208,-152 6215.1,-137.79 6227.52,-125.779 6239.81,-116.501"/>
<polygon fill="#555555" stroke="#555555" points="6241.57,-118.252 6245.81,-112.168 6238.7,-114.279 6241.57,-118.252"/>
</g>
<!-- n45&#45;&gt;n36 -->
<g id="edge116" class="edge"><title>n45&#45;&gt;n36</title>
<path fill="none" stroke="#555555" d="M6131.8,-241.266C5959.26,-232.209 5505.09,-208.326 5126,-188 5065.03,-184.731 4997.38,-181.062 4940.61,-177.971"/>
<polygon fill="#555555" stroke="#555555" points="4940.51,-175.512 4933.39,-177.578 4940.25,-180.405 4940.51,-175.512"/>
</g>
<!-- n46 -->
<g id="node47" class="node"><title>n46</title>
<polyline fill="none" stroke="#666666" points="1579.13,-264 1490.87,-264 "/>
<path fill="none" stroke="#666666" d="M1490.87,-264C1484.87,-264 1478.87,-258 1478.87,-252"/>
<polyline fill="none" stroke="#666666" points="1478.87,-252 1478.87,-240 "/>
<path fill="none" stroke="#666666" d="M1478.87,-240C1478.87,-234 1484.87,-228 1490.87,-228"/>
<polyline fill="none" stroke="#666666" points="1490.87,-228 1579.13,-228 "/>
<path fill="none" stroke="#666666" d="M1579.13,-228C1585.13,-228 1591.13,-234 1591.13,-240"/>
<polyline fill="none" stroke="#666666" points="1591.13,-240 1591.13,-252 "/>
<path fill="none" stroke="#666666" d="M1591.13,-252C1591.13,-258 1585.13,-264 1579.13,-264"/>
<text text-anchor="middle" x="1535" y="-241.6" font-family="Helvetica,sans-Serif" font-size="11.00">tests/tiers/t4_node.pl</text>
</g>
<!-- n46&#45;&gt;n9 -->
<g id="edge118" class="edge"><title>n46&#45;&gt;n9</title>
<path fill="none" stroke="#555555" d="M1478.72,-244.205C1330.28,-241.527 936.824,-230.453 898,-188 864.407,-151.267 863.335,-111.724 898,-76 930.147,-42.8713 2362.7,-24.0093 2714.57,-19.8711"/>
<polygon fill="#555555" stroke="#555555" points="2714.71,-22.3197 2721.68,-19.7877 2714.65,-17.42 2714.71,-22.3197"/>
</g>
<!-- n46&#45;&gt;n41 -->
<g id="edge120" class="edge"><title>n46&#45;&gt;n41</title>
<path fill="none" stroke="#555555" d="M1591.21,-242.725C1853.96,-232.088 2961.63,-187.248 3278.18,-174.434"/>
<polygon fill="#555555" stroke="#555555" points="3278.62,-176.868 3285.51,-174.137 3278.42,-171.972 3278.62,-176.868"/>
</g>
<!-- n47 -->
<g id="node48" class="node"><title>n47</title>
<polyline fill="none" stroke="#666666" points="6800,-188 6702,-188 "/>
<path fill="none" stroke="#666666" d="M6702,-188C6696,-188 6690,-182 6690,-176"/>
<polyline fill="none" stroke="#666666" points="6690,-176 6690,-164 "/>
<path fill="none" stroke="#666666" d="M6690,-164C6690,-158 6696,-152 6702,-152"/>
<polyline fill="none" stroke="#666666" points="6702,-152 6800,-152 "/>
<path fill="none" stroke="#666666" d="M6800,-152C6806,-152 6812,-158 6812,-164"/>
<polyline fill="none" stroke="#666666" points="6812,-164 6812,-176 "/>
<path fill="none" stroke="#666666" d="M6812,-176C6812,-182 6806,-188 6800,-188"/>
<text text-anchor="middle" x="6751" y="-165.6" font-family="Helvetica,sans-Serif" font-size="11.00">tests/tiers/t5_interop.pl</text>
</g>
<!-- n47&#45;&gt;n2 -->
<g id="edge122" class="edge"><title>n47&#45;&gt;n2</title>
<path fill="none" stroke="#555555" d="M6690,-153.216C6645.43,-141.686 6584.82,-126.003 6537.74,-113.82"/>
<polygon fill="#555555" stroke="#555555" points="6538.28,-111.431 6530.89,-112.049 6537.06,-116.175 6538.28,-111.431"/>
</g>
<!-- n47&#45;&gt;n4 -->
<g id="edge124" class="edge"><title>n47&#45;&gt;n4</title>
<path fill="none" stroke="#555555" d="M6776.98,-151.837C6793.09,-141.19 6813.92,-127.431 6831.04,-116.117"/>
<polygon fill="#555555" stroke="#555555" points="6832.67,-117.973 6837.16,-112.07 6829.97,-113.885 6832.67,-117.973"/>
</g>
<!-- n47&#45;&gt;n8 -->
<g id="edge126" class="edge"><title>n47&#45;&gt;n8</title>
<path fill="none" stroke="#555555" d="M6724.56,-151.837C6708.16,-141.19 6686.96,-127.431 6669.53,-116.117"/>
<polygon fill="#555555" stroke="#555555" points="6670.5,-113.826 6663.3,-112.07 6667.83,-117.936 6670.5,-113.826"/>
</g>
<!-- n47&#45;&gt;n9 -->
<g id="edge128" class="edge"><title>n47&#45;&gt;n9</title>
<path fill="none" stroke="#555555" d="M6751.83,-151.955C6751.84,-130.343 6748.14,-93.7626 6725,-76 6685.63,-45.7808 3201.61,-37.4485 3152,-36 3054.65,-33.1574 2942.59,-27.4868 2869.7,-23.478"/>
<polygon fill="#555555" stroke="#555555" points="2869.46,-21.0108 2862.33,-23.071 2869.19,-25.9034 2869.46,-21.0108"/>
</g>
<!-- n47&#45;&gt;n23 -->
<g id="edge130" class="edge"><title>n47&#45;&gt;n23</title>
<path fill="none" stroke="#555555" d="M6689.86,-153.804C6686.2,-153.131 6682.56,-152.521 6679,-152 6379.01,-108.111 6298.87,-149.41 5998,-112 5996.93,-111.867 5995.85,-111.728 5994.76,-111.585"/>
<polygon fill="#555555" stroke="#555555" points="5994.8,-109.117 5987.53,-110.575 5994.13,-113.97 5994.8,-109.117"/>
</g>
<!-- n47&#45;&gt;n25 -->
<g id="edge132" class="edge"><title>n47&#45;&gt;n25</title>
<path fill="none" stroke="#555555" d="M6812.06,-153.034C6855.95,-141.557 6915.31,-126.036 6961.59,-113.933"/>
<polygon fill="#555555" stroke="#555555" points="6962.46,-116.238 6968.62,-112.097 6961.22,-111.498 6962.46,-116.238"/>
</g>
<!-- n47&#45;&gt;n29 -->
<g id="edge134" class="edge"><title>n47&#45;&gt;n29</title>
<path fill="none" stroke="#555555" d="M6689.81,-154.12C6686.16,-153.367 6682.54,-152.653 6679,-152 6547.59,-127.728 6513.19,-131.569 6381,-112 6380.22,-111.885 6379.44,-111.769 6378.66,-111.653"/>
<polygon fill="#555555" stroke="#555555" points="6378.84,-109.202 6371.55,-110.583 6378.11,-114.047 6378.84,-109.202"/>
</g>
</g>
</svg>
